<svg xmlns="http://www.w3.org/2000/svg" width="840" height="160" viewBox="0 0 840 160">
  <defs>
    <pattern id="scanlines" patternUnits="userSpaceOnUse" width="840" height="4">
      <rect width="840" height="4" fill="transparent"/>
      <rect width="840" height="1" y="3" fill="rgba(106,107,246,0.06)"/>
    </pattern>
  </defs>

  <!-- Background -->
  <rect width="840" height="160" rx="12" ry="12" fill="#000" stroke="#6a6bf6" stroke-width="2"/>

  <!-- Scanlines overlay -->
  <rect width="840" height="160" rx="12" ry="12" fill="url(#scanlines)">
    <animate attributeName="opacity" values="0.95;1;0.97;1" dur="4s" repeatCount="indefinite"/>
  </rect>

  <!-- Heatmap grid -->
    <rect x="40" y="20" width="11" height="11" rx="2" fill="#333333"/>
  <rect x="40" y="34" width="11" height="11" rx="2" fill="#333333"/>
  <rect x="40" y="48" width="11" height="11" rx="2" fill="#1a4a2e"/>
  <rect x="40" y="62" width="11" height="11" rx="2" fill="#1a4a2e"/>
  <rect x="40" y="76" width="11" height="11" rx="2" fill="#333333"/>
  <rect x="40" y="90" width="11" height="11" rx="2" fill="#333333"/>
  <rect x="40" y="104" width="11" height="11" rx="2" fill="#333333"/>
  <rect x="54" y="20" width="11" height="11" rx="2" fill="#333333"/>
  <rect x="54" y="34" width="11" height="11" rx="2" fill="#333333"/>
  <rect x="54" y="48" width="11" height="11" rx="2" fill="#333333"/>
  <rect x="54" y="62" width="11" height="11" rx="2" fill="#1a4a2e"/>
  <rect x="54" y="76" width="11" height="11" rx="2" fill="#1a4a2e"/>
  <rect x="54" y="90" width="11" height="11" rx="2" fill="#1a4a2e"/>
  <rect x="54" y="104" width="11" height="11" rx="2" fill="#333333"/>
  <rect x="68" y="20" width="11" height="11" rx="2" fill="#1a4a2e"/>
  <rect x="68" y="34" width="11" height="11" rx="2" fill="#1a4a2e"/>
  <rect x="68" y="48" width="11" height="11" rx="2" fill="#1a4a2e"/>
  <rect x="68" y="62" width="11" height="11" rx="2" fill="#1a4a2e"/>
  <rect x="68" y="76" width="11" height="11" rx="2" fill="#1a4a2e"/>
  <rect x="68" y="90" width="11" height="11" rx="2" fill="#1a4a2e"/>
  <rect x="68" y="104" width="11" height="11" rx="2" fill="#333333"/>
  <rect x="82" y="20" width="11" height="11" rx="2" fill="#333333"/>
  <rect x="82" y="34" width="11" height="11" rx="2" fill="#333333"/>
  <rect x="82" y="48" width="11" height="11" rx="2" fill="#333333"/>
  <rect x="82" y="62" width="11" height="11" rx="2" fill="#1a4a2e"/>
  <rect x="82" y="76" width="11" height="11" rx="2" fill="#1a4a2e"/>
  <rect x="82" y="90" width="11" height="11" rx="2" fill="#1a4a2e"/>
  <rect x="82" y="104" width="11" height="11" rx="2" fill="#333333"/>
  <rect x="96" y="20" width="11" height="11" rx="2" fill="#1a4a2e"/>
  <rect x="96" y="34" width="11" height="11" rx="2" fill="#1a4a2e"/>
  <rect x="96" y="48" width="11" height="11" rx="2" fill="#1a4a2e"/>
  <rect x="96" y="62" width="11" height="11" rx="2" fill="#333333"/>
  <rect x="96" y="76" width="11" height="11" rx="2" fill="#333333"/>
  <rect x="96" y="90" width="11" height="11" rx="2" fill="#333333"/>
  <rect x="96" y="104" width="11" height="11" rx="2" fill="#1a4a2e"/>
  <rect x="110" y="20" width="11" height="11" rx="2" fill="#333333"/>
  <rect x="110" y="34" width="11" height="11" rx="2" fill="#333333"/>
  <rect x="110" y="48" width="11" height="11" rx="2" fill="#333333"/>
  <rect x="110" y="62" width="11" height="11" rx="2" fill="#1a4a2e"/>
  <rect x="110" y="76" width="11" height="11" rx="2" fill="#1a4a2e"/>
  <rect x="110" y="90" width="11" height="11" rx="2" fill="#333333"/>
  <rect x="110" y="104" width="11" height="11" rx="2" fill="#1a4a2e"/>
  <rect x="124" y="20" width="11" height="11" rx="2" fill="#333333"/>
  <rect x="124" y="34" width="11" height="11" rx="2" fill="#333333"/>
  <rect x="124" y="48" width="11" height="11" rx="2" fill="#1a4a2e"/>
  <rect x="124" y="62" width="11" height="11" rx="2" fill="#333333"/>
  <rect x="124" y="76" width="11" height="11" rx="2" fill="#333333"/>
  <rect x="124" y="90" width="11" height="11" rx="2" fill="#333333"/>
  <rect x="124" y="104" width="11" height="11" rx="2" fill="#333333"/>
  <rect x="138" y="20" width="11" height="11" rx="2" fill="#333333"/>
  <rect x="138" y="34" width="11" height="11" rx="2" fill="#1a4a2e"/>
  <rect x="138" y="48" width="11" height="11" rx="2" fill="#1a4a2e"/>
  <rect x="138" y="62" width="11" height="11" rx="2" fill="#333333"/>
  <rect x="138" y="76" width="11" height="11" rx="2" fill="#333333"/>
  <rect x="138" y="90" width="11" height="11" rx="2" fill="#333333"/>
  <rect x="138" y="104" width="11" height="11" rx="2" fill="#1a4a2e"/>
  <rect x="152" y="20" width="11" height="11" rx="2" fill="#333333"/>
  <rect x="152" y="34" width="11" height="11" rx="2" fill="#1a4a2e"/>
  <rect x="152" y="48" width="11" height="11" rx="2" fill="#1a4a2e"/>
  <rect x="152" y="62" width="11" height="11" rx="2" fill="#1a4a2e"/>
  <rect x="152" y="76" width="11" height="11" rx="2" fill="#333333"/>
  <rect x="152" y="90" width="11" height="11" rx="2" fill="#333333"/>
  <rect x="152" y="104" width="11" height="11" rx="2" fill="#333333"/>
  <rect x="166" y="20" width="11" height="11" rx="2" fill="#333333"/>
  <rect x="166" y="34" width="11" height="11" rx="2" fill="#333333"/>
  <rect x="166" y="48" width="11" height="11" rx="2" fill="#1a4a2e"/>
  <rect x="166" y="62" width="11" height="11" rx="2" fill="#333333"/>
  <rect x="166" y="76" width="11" height="11" rx="2" fill="#333333"/>
  <rect x="166" y="90" width="11" height="11" rx="2" fill="#333333"/>
  <rect x="166" y="104" width="11" height="11" rx="2" fill="#1a4a2e"/>
  <rect x="180" y="20" width="11" height="11" rx="2" fill="#1a4a2e"/>
  <rect x="180" y="34" width="11" height="11" rx="2" fill="#1a4a2e"/>
  <rect x="180" y="48" width="11" height="11" rx="2" fill="#333333"/>
  <rect x="180" y="62" width="11" height="11" rx="2" fill="#333333"/>
  <rect x="180" y="76" width="11" height="11" rx="2" fill="#6bf1b6"/>
  <rect x="180" y="90" width="11" height="11" rx="2" fill="#4a9e7a"/>
  <rect x="180" y="104" width="11" height="11" rx="2" fill="#333333"/>
  <rect x="194" y="20" width="11" height="11" rx="2" fill="#333333"/>
  <rect x="194" y="34" width="11" height="11" rx="2" fill="#2d7a4a"/>
  <rect x="194" y="48" width="11" height="11" rx="2" fill="#2d7a4a"/>
  <rect x="194" y="62" width="11" height="11" rx="2" fill="#1a4a2e"/>
  <rect x="194" y="76" width="11" height="11" rx="2" fill="#333333"/>
  <rect x="194" y="90" width="11" height="11" rx="2" fill="#333333"/>
  <rect x="194" y="104" width="11" height="11" rx="2" fill="#333333"/>
  <rect x="208" y="20" width="11" height="11" rx="2" fill="#333333"/>
  <rect x="208" y="34" width="11" height="11" rx="2" fill="#333333"/>
  <rect x="208" y="48" width="11" height="11" rx="2" fill="#333333"/>
  <rect x="208" y="62" width="11" height="11" rx="2" fill="#333333"/>
  <rect x="208" y="76" width="11" height="11" rx="2" fill="#333333"/>
  <rect x="208" y="90" width="11" height="11" rx="2" fill="#333333"/>
  <rect x="208" y="104" width="11" height="11" rx="2" fill="#333333"/>
  <rect x="222" y="20" width="11" height="11" rx="2" fill="#333333"/>
  <rect x="222" y="34" width="11" height="11" rx="2" fill="#333333"/>
  <rect x="222" y="48" width="11" height="11" rx="2" fill="#333333"/>
  <rect x="222" y="62" width="11" height="11" rx="2" fill="#333333"/>
  <rect x="222" y="76" width="11" height="11" rx="2" fill="#333333"/>
  <rect x="222" y="90" width="11" height="11" rx="2" fill="#333333"/>
  <rect x="222" y="104" width="11" height="11" rx="2" fill="#333333"/>
  <rect x="236" y="20" width="11" height="11" rx="2" fill="#333333"/>
  <rect x="236" y="34" width="11" height="11" rx="2" fill="#333333"/>
  <rect x="236" y="48" width="11" height="11" rx="2" fill="#333333"/>
  <rect x="236" y="62" width="11" height="11" rx="2" fill="#333333"/>
  <rect x="236" y="76" width="11" height="11" rx="2" fill="#333333"/>
  <rect x="236" y="90" width="11" height="11" rx="2" fill="#333333"/>
  <rect x="236" y="104" width="11" height="11" rx="2" fill="#333333"/>
  <rect x="250" y="20" width="11" height="11" rx="2" fill="#333333"/>
  <rect x="250" y="34" width="11" height="11" rx="2" fill="#333333"/>
  <rect x="250" y="48" width="11" height="11" rx="2" fill="#333333"/>
  <rect x="250" y="62" width="11" height="11" rx="2" fill="#333333"/>
  <rect x="250" y="76" width="11" height="11" rx="2" fill="#333333"/>
  <rect x="250" y="90" width="11" height="11" rx="2" fill="#333333"/>
  <rect x="250" y="104" width="11" height="11" rx="2" fill="#333333"/>
  <rect x="264" y="20" width="11" height="11" rx="2" fill="#333333"/>
  <rect x="264" y="34" width="11" height="11" rx="2" fill="#333333"/>
  <rect x="264" y="48" width="11" height="11" rx="2" fill="#333333"/>
  <rect x="264" y="62" width="11" height="11" rx="2" fill="#333333"/>
  <rect x="264" y="76" width="11" height="11" rx="2" fill="#333333"/>
  <rect x="264" y="90" width="11" height="11" rx="2" fill="#333333"/>
  <rect x="264" y="104" width="11" height="11" rx="2" fill="#333333"/>
  <rect x="278" y="20" width="11" height="11" rx="2" fill="#333333"/>
  <rect x="278" y="34" width="11" height="11" rx="2" fill="#333333"/>
  <rect x="278" y="48" width="11" height="11" rx="2" fill="#333333"/>
  <rect x="278" y="62" width="11" height="11" rx="2" fill="#333333"/>
  <rect x="278" y="76" width="11" height="11" rx="2" fill="#333333"/>
  <rect x="278" y="90" width="11" height="11" rx="2" fill="#333333"/>
  <rect x="278" y="104" width="11" height="11" rx="2" fill="#333333"/>
  <rect x="292" y="20" width="11" height="11" rx="2" fill="#333333"/>
  <rect x="292" y="34" width="11" height="11" rx="2" fill="#333333"/>
  <rect x="292" y="48" width="11" height="11" rx="2" fill="#333333"/>
  <rect x="292" y="62" width="11" height="11" rx="2" fill="#333333"/>
  <rect x="292" y="76" width="11" height="11" rx="2" fill="#333333"/>
  <rect x="292" y="90" width="11" height="11" rx="2" fill="#333333"/>
  <rect x="292" y="104" width="11" height="11" rx="2" fill="#333333"/>
  <rect x="306" y="20" width="11" height="11" rx="2" fill="#333333"/>
  <rect x="306" y="34" width="11" height="11" rx="2" fill="#333333"/>
  <rect x="306" y="48" width="11" height="11" rx="2" fill="#333333"/>
  <rect x="306" y="62" width="11" height="11" rx="2" fill="#333333"/>
  <rect x="306" y="76" width="11" height="11" rx="2" fill="#333333"/>
  <rect x="306" y="90" width="11" height="11" rx="2" fill="#333333"/>
  <rect x="306" y="104" width="11" height="11" rx="2" fill="#333333"/>
  <rect x="320" y="20" width="11" height="11" rx="2" fill="#333333"/>
  <rect x="320" y="34" width="11" height="11" rx="2" fill="#333333"/>
  <rect x="320" y="48" width="11" height="11" rx="2" fill="#333333"/>
  <rect x="320" y="62" width="11" height="11" rx="2" fill="#333333"/>
  <rect x="320" y="76" width="11" height="11" rx="2" fill="#333333"/>
  <rect x="320" y="90" width="11" height="11" rx="2" fill="#333333"/>
  <rect x="320" y="104" width="11" height="11" rx="2" fill="#333333"/>
  <rect x="334" y="20" width="11" height="11" rx="2" fill="#333333"/>
  <rect x="334" y="34" width="11" height="11" rx="2" fill="#333333"/>
  <rect x="334" y="48" width="11" height="11" rx="2" fill="#333333"/>
  <rect x="334" y="62" width="11" height="11" rx="2" fill="#333333"/>
  <rect x="334" y="76" width="11" height="11" rx="2" fill="#333333"/>
  <rect x="334" y="90" width="11" height="11" rx="2" fill="#333333"/>
  <rect x="334" y="104" width="11" height="11" rx="2" fill="#333333"/>
  <rect x="348" y="20" width="11" height="11" rx="2" fill="#333333"/>
  <rect x="348" y="34" width="11" height="11" rx="2" fill="#333333"/>
  <rect x="348" y="48" width="11" height="11" rx="2" fill="#333333"/>
  <rect x="348" y="62" width="11" height="11" rx="2" fill="#333333"/>
  <rect x="348" y="76" width="11" height="11" rx="2" fill="#333333"/>
  <rect x="348" y="90" width="11" height="11" rx="2" fill="#333333"/>
  <rect x="348" y="104" width="11" height="11" rx="2" fill="#333333"/>
  <rect x="362" y="20" width="11" height="11" rx="2" fill="#333333"/>
  <rect x="362" y="34" width="11" height="11" rx="2" fill="#333333"/>
  <rect x="362" y="48" width="11" height="11" rx="2" fill="#333333"/>
  <rect x="362" y="62" width="11" height="11" rx="2" fill="#333333"/>
  <rect x="362" y="76" width="11" height="11" rx="2" fill="#333333"/>
  <rect x="362" y="90" width="11" height="11" rx="2" fill="#333333"/>
  <rect x="362" y="104" width="11" height="11" rx="2" fill="#333333"/>
  <rect x="376" y="20" width="11" height="11" rx="2" fill="#333333"/>
  <rect x="376" y="34" width="11" height="11" rx="2" fill="#333333"/>
  <rect x="376" y="48" width="11" height="11" rx="2" fill="#333333"/>
  <rect x="376" y="62" width="11" height="11" rx="2" fill="#333333"/>
  <rect x="376" y="76" width="11" height="11" rx="2" fill="#333333"/>
  <rect x="376" y="90" width="11" height="11" rx="2" fill="#333333"/>
  <rect x="376" y="104" width="11" height="11" rx="2" fill="#333333"/>
  <rect x="390" y="20" width="11" height="11" rx="2" fill="#333333"/>
  <rect x="390" y="34" width="11" height="11" rx="2" fill="#333333"/>
  <rect x="390" y="48" width="11" height="11" rx="2" fill="#333333"/>
  <rect x="390" y="62" width="11" height="11" rx="2" fill="#333333"/>
  <rect x="390" y="76" width="11" height="11" rx="2" fill="#333333"/>
  <rect x="390" y="90" width="11" height="11" rx="2" fill="#333333"/>
  <rect x="390" y="104" width="11" height="11" rx="2" fill="#333333"/>
  <rect x="404" y="20" width="11" height="11" rx="2" fill="#333333"/>
  <rect x="404" y="34" width="11" height="11" rx="2" fill="#333333"/>
  <rect x="404" y="48" width="11" height="11" rx="2" fill="#333333"/>
  <rect x="404" y="62" width="11" height="11" rx="2" fill="#333333"/>
  <rect x="404" y="76" width="11" height="11" rx="2" fill="#333333"/>
  <rect x="404" y="90" width="11" height="11" rx="2" fill="#333333"/>
  <rect x="404" y="104" width="11" height="11" rx="2" fill="#333333"/>
  <rect x="418" y="20" width="11" height="11" rx="2" fill="#333333"/>
  <rect x="418" y="34" width="11" height="11" rx="2" fill="#333333"/>
  <rect x="418" y="48" width="11" height="11" rx="2" fill="#333333"/>
  <rect x="418" y="62" width="11" height="11" rx="2" fill="#333333"/>
  <rect x="418" y="76" width="11" height="11" rx="2" fill="#333333"/>
  <rect x="418" y="90" width="11" height="11" rx="2" fill="#333333"/>
  <rect x="418" y="104" width="11" height="11" rx="2" fill="#333333"/>
  <rect x="432" y="20" width="11" height="11" rx="2" fill="#333333"/>
  <rect x="432" y="34" width="11" height="11" rx="2" fill="#333333"/>
  <rect x="432" y="48" width="11" height="11" rx="2" fill="#333333"/>
  <rect x="432" y="62" width="11" height="11" rx="2" fill="#333333"/>
  <rect x="432" y="76" width="11" height="11" rx="2" fill="#333333"/>
  <rect x="432" y="90" width="11" height="11" rx="2" fill="#333333"/>
  <rect x="432" y="104" width="11" height="11" rx="2" fill="#333333"/>
  <rect x="446" y="20" width="11" height="11" rx="2" fill="#333333"/>
  <rect x="446" y="34" width="11" height="11" rx="2" fill="#333333"/>
  <rect x="446" y="48" width="11" height="11" rx="2" fill="#333333"/>
  <rect x="446" y="62" width="11" height="11" rx="2" fill="#333333"/>
  <rect x="446" y="76" width="11" height="11" rx="2" fill="#333333"/>
  <rect x="446" y="90" width="11" height="11" rx="2" fill="#333333"/>
  <rect x="446" y="104" width="11" height="11" rx="2" fill="#333333"/>
  <rect x="460" y="20" width="11" height="11" rx="2" fill="#333333"/>
  <rect x="460" y="34" width="11" height="11" rx="2" fill="#333333"/>
  <rect x="460" y="48" width="11" height="11" rx="2" fill="#333333"/>
  <rect x="460" y="62" width="11" height="11" rx="2" fill="#333333"/>
  <rect x="460" y="76" width="11" height="11" rx="2" fill="#333333"/>
  <rect x="460" y="90" width="11" height="11" rx="2" fill="#333333"/>
  <rect x="460" y="104" width="11" height="11" rx="2" fill="#333333"/>
  <rect x="474" y="20" width="11" height="11" rx="2" fill="#333333"/>
  <rect x="474" y="34" width="11" height="11" rx="2" fill="#333333"/>
  <rect x="474" y="48" width="11" height="11" rx="2" fill="#333333"/>
  <rect x="474" y="62" width="11" height="11" rx="2" fill="#333333"/>
  <rect x="474" y="76" width="11" height="11" rx="2" fill="#333333"/>
  <rect x="474" y="90" width="11" height="11" rx="2" fill="#333333"/>
  <rect x="474" y="104" width="11" height="11" rx="2" fill="#333333"/>
  <rect x="488" y="20" width="11" height="11" rx="2" fill="#333333"/>
  <rect x="488" y="34" width="11" height="11" rx="2" fill="#333333"/>
  <rect x="488" y="48" width="11" height="11" rx="2" fill="#333333"/>
  <rect x="488" y="62" width="11" height="11" rx="2" fill="#333333"/>
  <rect x="488" y="76" width="11" height="11" rx="2" fill="#333333"/>
  <rect x="488" y="90" width="11" height="11" rx="2" fill="#333333"/>
  <rect x="488" y="104" width="11" height="11" rx="2" fill="#333333"/>
  <rect x="502" y="20" width="11" height="11" rx="2" fill="#333333"/>
  <rect x="502" y="34" width="11" height="11" rx="2" fill="#333333"/>
  <rect x="502" y="48" width="11" height="11" rx="2" fill="#333333"/>
  <rect x="502" y="62" width="11" height="11" rx="2" fill="#333333"/>
  <rect x="502" y="76" width="11" height="11" rx="2" fill="#333333"/>
  <rect x="502" y="90" width="11" height="11" rx="2" fill="#333333"/>
  <rect x="502" y="104" width="11" height="11" rx="2" fill="#333333"/>
  <rect x="516" y="20" width="11" height="11" rx="2" fill="#333333"/>
  <rect x="516" y="34" width="11" height="11" rx="2" fill="#333333"/>
  <rect x="516" y="48" width="11" height="11" rx="2" fill="#333333"/>
  <rect x="516" y="62" width="11" height="11" rx="2" fill="#333333"/>
  <rect x="516" y="76" width="11" height="11" rx="2" fill="#333333"/>
  <rect x="516" y="90" width="11" height="11" rx="2" fill="#333333"/>
  <rect x="516" y="104" width="11" height="11" rx="2" fill="#333333"/>
  <rect x="530" y="20" width="11" height="11" rx="2" fill="#333333"/>
  <rect x="530" y="34" width="11" height="11" rx="2" fill="#333333"/>
  <rect x="530" y="48" width="11" height="11" rx="2" fill="#333333"/>
  <rect x="530" y="62" width="11" height="11" rx="2" fill="#333333"/>
  <rect x="530" y="76" width="11" height="11" rx="2" fill="#333333"/>
  <rect x="530" y="90" width="11" height="11" rx="2" fill="#333333"/>
  <rect x="530" y="104" width="11" height="11" rx="2" fill="#333333"/>
  <rect x="544" y="20" width="11" height="11" rx="2" fill="#333333"/>
  <rect x="544" y="34" width="11" height="11" rx="2" fill="#333333"/>
  <rect x="544" y="48" width="11" height="11" rx="2" fill="#333333"/>
  <rect x="544" y="62" width="11" height="11" rx="2" fill="#333333"/>
  <rect x="544" y="76" width="11" height="11" rx="2" fill="#333333"/>
  <rect x="544" y="90" width="11" height="11" rx="2" fill="#333333"/>
  <rect x="544" y="104" width="11" height="11" rx="2" fill="#333333"/>
  <rect x="558" y="20" width="11" height="11" rx="2" fill="#333333"/>
  <rect x="558" y="34" width="11" height="11" rx="2" fill="#333333"/>
  <rect x="558" y="48" width="11" height="11" rx="2" fill="#333333"/>
  <rect x="558" y="62" width="11" height="11" rx="2" fill="#333333"/>
  <rect x="558" y="76" width="11" height="11" rx="2" fill="#333333"/>
  <rect x="558" y="90" width="11" height="11" rx="2" fill="#333333"/>
  <rect x="558" y="104" width="11" height="11" rx="2" fill="#333333"/>
  <rect x="572" y="20" width="11" height="11" rx="2" fill="#333333"/>
  <rect x="572" y="34" width="11" height="11" rx="2" fill="#333333"/>
  <rect x="572" y="48" width="11" height="11" rx="2" fill="#333333"/>
  <rect x="572" y="62" width="11" height="11" rx="2" fill="#333333"/>
  <rect x="572" y="76" width="11" height="11" rx="2" fill="#333333"/>
  <rect x="572" y="90" width="11" height="11" rx="2" fill="#333333"/>
  <rect x="572" y="104" width="11" height="11" rx="2" fill="#333333"/>
  <rect x="586" y="20" width="11" height="11" rx="2" fill="#333333"/>
  <rect x="586" y="34" width="11" height="11" rx="2" fill="#333333"/>
  <rect x="586" y="48" width="11" height="11" rx="2" fill="#333333"/>
  <rect x="586" y="62" width="11" height="11" rx="2" fill="#333333"/>
  <rect x="586" y="76" width="11" height="11" rx="2" fill="#333333"/>
  <rect x="586" y="90" width="11" height="11" rx="2" fill="#333333"/>
  <rect x="586" y="104" width="11" height="11" rx="2" fill="#333333"/>
  <rect x="600" y="20" width="11" height="11" rx="2" fill="#333333"/>
  <rect x="600" y="34" width="11" height="11" rx="2" fill="#333333"/>
  <rect x="600" y="48" width="11" height="11" rx="2" fill="#333333"/>
  <rect x="600" y="62" width="11" height="11" rx="2" fill="#333333"/>
  <rect x="600" y="76" width="11" height="11" rx="2" fill="#333333"/>
  <rect x="600" y="90" width="11" height="11" rx="2" fill="#333333"/>
  <rect x="600" y="104" width="11" height="11" rx="2" fill="#333333"/>
  <rect x="614" y="20" width="11" height="11" rx="2" fill="#333333"/>
  <rect x="614" y="34" width="11" height="11" rx="2" fill="#333333"/>
  <rect x="614" y="48" width="11" height="11" rx="2" fill="#333333"/>
  <rect x="614" y="62" width="11" height="11" rx="2" fill="#333333"/>
  <rect x="614" y="76" width="11" height="11" rx="2" fill="#333333"/>
  <rect x="614" y="90" width="11" height="11" rx="2" fill="#333333"/>
  <rect x="614" y="104" width="11" height="11" rx="2" fill="#333333"/>
  <rect x="628" y="20" width="11" height="11" rx="2" fill="#333333"/>
  <rect x="628" y="34" width="11" height="11" rx="2" fill="#333333"/>
  <rect x="628" y="48" width="11" height="11" rx="2" fill="#333333"/>
  <rect x="628" y="62" width="11" height="11" rx="2" fill="#333333"/>
  <rect x="628" y="76" width="11" height="11" rx="2" fill="#333333"/>
  <rect x="628" y="90" width="11" height="11" rx="2" fill="#333333"/>
  <rect x="628" y="104" width="11" height="11" rx="2" fill="#333333"/>
  <rect x="642" y="20" width="11" height="11" rx="2" fill="#333333"/>
  <rect x="642" y="34" width="11" height="11" rx="2" fill="#333333"/>
  <rect x="642" y="48" width="11" height="11" rx="2" fill="#333333"/>
  <rect x="642" y="62" width="11" height="11" rx="2" fill="#333333"/>
  <rect x="642" y="76" width="11" height="11" rx="2" fill="#333333"/>
  <rect x="642" y="90" width="11" height="11" rx="2" fill="#333333"/>
  <rect x="642" y="104" width="11" height="11" rx="2" fill="#333333"/>
  <rect x="656" y="20" width="11" height="11" rx="2" fill="#333333"/>
  <rect x="656" y="34" width="11" height="11" rx="2" fill="#333333"/>
  <rect x="656" y="48" width="11" height="11" rx="2" fill="#333333"/>
  <rect x="656" y="62" width="11" height="11" rx="2" fill="#333333"/>
  <rect x="656" y="76" width="11" height="11" rx="2" fill="#333333"/>
  <rect x="656" y="90" width="11" height="11" rx="2" fill="#333333"/>
  <rect x="656" y="104" width="11" height="11" rx="2" fill="#333333"/>
  <rect x="670" y="20" width="11" height="11" rx="2" fill="#333333"/>
  <rect x="670" y="34" width="11" height="11" rx="2" fill="#333333"/>
  <rect x="670" y="48" width="11" height="11" rx="2" fill="#333333"/>
  <rect x="670" y="62" width="11" height="11" rx="2" fill="#333333"/>
  <rect x="670" y="76" width="11" height="11" rx="2" fill="#333333"/>
  <rect x="670" y="90" width="11" height="11" rx="2" fill="#333333"/>
  <rect x="670" y="104" width="11" height="11" rx="2" fill="#333333"/>
  <rect x="684" y="20" width="11" height="11" rx="2" fill="#333333"/>
  <rect x="684" y="34" width="11" height="11" rx="2" fill="#333333"/>
  <rect x="684" y="48" width="11" height="11" rx="2" fill="#333333"/>
  <rect x="684" y="62" width="11" height="11" rx="2" fill="#333333"/>
  <rect x="684" y="76" width="11" height="11" rx="2" fill="#333333"/>
  <rect x="684" y="90" width="11" height="11" rx="2" fill="#333333"/>
  <rect x="684" y="104" width="11" height="11" rx="2" fill="#333333"/>
  <rect x="698" y="20" width="11" height="11" rx="2" fill="#333333"/>
  <rect x="698" y="34" width="11" height="11" rx="2" fill="#333333"/>
  <rect x="698" y="48" width="11" height="11" rx="2" fill="#333333"/>
  <rect x="698" y="62" width="11" height="11" rx="2" fill="#333333"/>
  <rect x="698" y="76" width="11" height="11" rx="2" fill="#333333"/>
  <rect x="698" y="90" width="11" height="11" rx="2" fill="#333333"/>
  <rect x="698" y="104" width="11" height="11" rx="2" fill="#333333"/>
  <rect x="712" y="20" width="11" height="11" rx="2" fill="#333333"/>
  <rect x="712" y="34" width="11" height="11" rx="2" fill="#333333"/>
  <rect x="712" y="48" width="11" height="11" rx="2" fill="#333333"/>
  <rect x="712" y="62" width="11" height="11" rx="2" fill="#333333"/>
  <rect x="712" y="76" width="11" height="11" rx="2" fill="#333333"/>
  <rect x="712" y="90" width="11" height="11" rx="2" fill="#333333"/>
  <rect x="712" y="104" width="11" height="11" rx="2" fill="#333333"/>
  <rect x="726" y="20" width="11" height="11" rx="2" fill="#333333"/>
  <rect x="726" y="34" width="11" height="11" rx="2" fill="#333333"/>
  <rect x="726" y="48" width="11" height="11" rx="2" fill="#333333"/>
  <rect x="726" y="62" width="11" height="11" rx="2" fill="#333333"/>
  <rect x="726" y="76" width="11" height="11" rx="2" fill="#333333"/>
  <rect x="726" y="90" width="11" height="11" rx="2" fill="#333333"/>
  <rect x="726" y="104" width="11" height="11" rx="2" fill="#333333"/>
  <rect x="740" y="20" width="11" height="11" rx="2" fill="#333333"/>
  <rect x="740" y="34" width="11" height="11" rx="2" fill="#333333"/>
  <rect x="740" y="48" width="11" height="11" rx="2" fill="#333333"/>
  <rect x="740" y="62" width="11" height="11" rx="2" fill="#333333"/>
  <rect x="740" y="76" width="11" height="11" rx="2" fill="#333333"/>
  <rect x="740" y="90" width="11" height="11" rx="2" fill="#333333"/>
  <rect x="740" y="104" width="11" height="11" rx="2" fill="#333333"/>
  <rect x="754" y="20" width="11" height="11" rx="2" fill="#333333"/>
  <rect x="754" y="34" width="11" height="11" rx="2" fill="#333333"/>
  <rect x="754" y="48" width="11" height="11" rx="2" fill="#333333"/>
  <rect x="754" y="62" width="11" height="11" rx="2" fill="#333333"/>
  <rect x="754" y="76" width="11" height="11" rx="2" fill="#333333"/>
  <rect x="754" y="90" width="11" height="11" rx="2" fill="#333333"/>

  <!-- Total contributions label -->
  <text x="420" y="150" text-anchor="middle" font-family="'Courier New', Courier, monospace" font-size="11" fill="#4a9e7a">304 contributions so far in 2026</text>
</svg>
