<svg xmlns="http://www.w3.org/2000/svg" width="840" height="668" viewBox="0 0 840 668">
  <defs>
    <filter id="glow">
      <feGaussianBlur stdDeviation="2" result="blur"/>
      <feMerge>
        <feMergeNode in="blur"/>
        <feMergeNode in="SourceGraphic"/>
      </feMerge>
    </filter>
    <filter id="hero_glow">
      <feGaussianBlur stdDeviation="1.5" result="blur"/>
      <feMerge>
        <feMergeNode in="blur"/>
        <feMergeNode in="SourceGraphic"/>
      </feMerge>
    </filter>
  </defs>

  <!-- Background -->
  <rect width="840" height="668" rx="12" ry="12" fill="#000" stroke="#6a6bf6" stroke-width="3"/>

  <!-- Terminal prompt: name // handle -->
  <text x="30" y="47" font-family="'Courier New', Courier, monospace" font-size="26" fill="#6bf1b6">
    &gt; sl revoy // revelri<tspan fill="#6bf1b6" font-size="26">
      <animate attributeName="opacity" values="0;1;0" dur="1.2s" repeatCount="indefinite"/>|</tspan>
  </text>

  <!-- Activity heatmap (top-right, scaled down) -->
  <g transform="matrix(0.525, 0, 0, 0.56, 411, 2)">
      <rect x="40" y="20" width="11" height="11" rx="2" fill="#333333"/>
  <rect x="40" y="34" width="11" height="11" rx="2" fill="#333333"/>
  <rect x="40" y="48" width="11" height="11" rx="2" fill="#1a4a2e"/>
  <rect x="40" y="62" width="11" height="11" rx="2" fill="#1a4a2e"/>
  <rect x="40" y="76" width="11" height="11" rx="2" fill="#333333"/>
  <rect x="40" y="90" width="11" height="11" rx="2" fill="#333333"/>
  <rect x="40" y="104" width="11" height="11" rx="2" fill="#333333"/>
  <rect x="54" y="20" width="11" height="11" rx="2" fill="#333333"/>
  <rect x="54" y="34" width="11" height="11" rx="2" fill="#333333"/>
  <rect x="54" y="48" width="11" height="11" rx="2" fill="#333333"/>
  <rect x="54" y="62" width="11" height="11" rx="2" fill="#1a4a2e"/>
  <rect x="54" y="76" width="11" height="11" rx="2" fill="#1a4a2e"/>
  <rect x="54" y="90" width="11" height="11" rx="2" fill="#1a4a2e"/>
  <rect x="54" y="104" width="11" height="11" rx="2" fill="#333333"/>
  <rect x="68" y="20" width="11" height="11" rx="2" fill="#1a4a2e"/>
  <rect x="68" y="34" width="11" height="11" rx="2" fill="#1a4a2e"/>
  <rect x="68" y="48" width="11" height="11" rx="2" fill="#1a4a2e"/>
  <rect x="68" y="62" width="11" height="11" rx="2" fill="#1a4a2e"/>
  <rect x="68" y="76" width="11" height="11" rx="2" fill="#1a4a2e"/>
  <rect x="68" y="90" width="11" height="11" rx="2" fill="#1a4a2e"/>
  <rect x="68" y="104" width="11" height="11" rx="2" fill="#333333"/>
  <rect x="82" y="20" width="11" height="11" rx="2" fill="#333333"/>
  <rect x="82" y="34" width="11" height="11" rx="2" fill="#333333"/>
  <rect x="82" y="48" width="11" height="11" rx="2" fill="#333333"/>
  <rect x="82" y="62" width="11" height="11" rx="2" fill="#1a4a2e"/>
  <rect x="82" y="76" width="11" height="11" rx="2" fill="#1a4a2e"/>
  <rect x="82" y="90" width="11" height="11" rx="2" fill="#1a4a2e"/>
  <rect x="82" y="104" width="11" height="11" rx="2" fill="#333333"/>
  <rect x="96" y="20" width="11" height="11" rx="2" fill="#1a4a2e"/>
  <rect x="96" y="34" width="11" height="11" rx="2" fill="#1a4a2e"/>
  <rect x="96" y="48" width="11" height="11" rx="2" fill="#1a4a2e"/>
  <rect x="96" y="62" width="11" height="11" rx="2" fill="#333333"/>
  <rect x="96" y="76" width="11" height="11" rx="2" fill="#333333"/>
  <rect x="96" y="90" width="11" height="11" rx="2" fill="#333333"/>
  <rect x="96" y="104" width="11" height="11" rx="2" fill="#1a4a2e"/>
  <rect x="110" y="20" width="11" height="11" rx="2" fill="#333333"/>
  <rect x="110" y="34" width="11" height="11" rx="2" fill="#333333"/>
  <rect x="110" y="48" width="11" height="11" rx="2" fill="#333333"/>
  <rect x="110" y="62" width="11" height="11" rx="2" fill="#1a4a2e"/>
  <rect x="110" y="76" width="11" height="11" rx="2" fill="#1a4a2e"/>
  <rect x="110" y="90" width="11" height="11" rx="2" fill="#333333"/>
  <rect x="110" y="104" width="11" height="11" rx="2" fill="#1a4a2e"/>
  <rect x="124" y="20" width="11" height="11" rx="2" fill="#1a4a2e"/>
  <rect x="124" y="34" width="11" height="11" rx="2" fill="#1a4a2e"/>
  <rect x="124" y="48" width="11" height="11" rx="2" fill="#1a4a2e"/>
  <rect x="124" y="62" width="11" height="11" rx="2" fill="#333333"/>
  <rect x="124" y="76" width="11" height="11" rx="2" fill="#333333"/>
  <rect x="124" y="90" width="11" height="11" rx="2" fill="#333333"/>
  <rect x="124" y="104" width="11" height="11" rx="2" fill="#333333"/>
  <rect x="138" y="20" width="11" height="11" rx="2" fill="#333333"/>
  <rect x="138" y="34" width="11" height="11" rx="2" fill="#1a4a2e"/>
  <rect x="138" y="48" width="11" height="11" rx="2" fill="#1a4a2e"/>
  <rect x="138" y="62" width="11" height="11" rx="2" fill="#333333"/>
  <rect x="138" y="76" width="11" height="11" rx="2" fill="#1a4a2e"/>
  <rect x="138" y="90" width="11" height="11" rx="2" fill="#333333"/>
  <rect x="138" y="104" width="11" height="11" rx="2" fill="#1a4a2e"/>
  <rect x="152" y="20" width="11" height="11" rx="2" fill="#1a4a2e"/>
  <rect x="152" y="34" width="11" height="11" rx="2" fill="#1a4a2e"/>
  <rect x="152" y="48" width="11" height="11" rx="2" fill="#1a4a2e"/>
  <rect x="152" y="62" width="11" height="11" rx="2" fill="#1a4a2e"/>
  <rect x="152" y="76" width="11" height="11" rx="2" fill="#333333"/>
  <rect x="152" y="90" width="11" height="11" rx="2" fill="#333333"/>
  <rect x="152" y="104" width="11" height="11" rx="2" fill="#333333"/>
  <rect x="166" y="20" width="11" height="11" rx="2" fill="#333333"/>
  <rect x="166" y="34" width="11" height="11" rx="2" fill="#333333"/>
  <rect x="166" y="48" width="11" height="11" rx="2" fill="#1a4a2e"/>
  <rect x="166" y="62" width="11" height="11" rx="2" fill="#333333"/>
  <rect x="166" y="76" width="11" height="11" rx="2" fill="#333333"/>
  <rect x="166" y="90" width="11" height="11" rx="2" fill="#333333"/>
  <rect x="166" y="104" width="11" height="11" rx="2" fill="#1a4a2e"/>
  <rect x="180" y="20" width="11" height="11" rx="2" fill="#1a4a2e"/>
  <rect x="180" y="34" width="11" height="11" rx="2" fill="#1a4a2e"/>
  <rect x="180" y="48" width="11" height="11" rx="2" fill="#333333"/>
  <rect x="180" y="62" width="11" height="11" rx="2" fill="#333333"/>
  <rect x="180" y="76" width="11" height="11" rx="2" fill="#6bf1b6"/>
  <rect x="180" y="90" width="11" height="11" rx="2" fill="#4a9e7a"/>
  <rect x="180" y="104" width="11" height="11" rx="2" fill="#333333"/>
  <rect x="194" y="20" width="11" height="11" rx="2" fill="#1a4a2e"/>
  <rect x="194" y="34" width="11" height="11" rx="2" fill="#1a4a2e"/>
  <rect x="194" y="48" width="11" height="11" rx="2" fill="#2d7a4a"/>
  <rect x="194" y="62" width="11" height="11" rx="2" fill="#1a4a2e"/>
  <rect x="194" y="76" width="11" height="11" rx="2" fill="#1a4a2e"/>
  <rect x="194" y="90" width="11" height="11" rx="2" fill="#333333"/>
  <rect x="194" y="104" width="11" height="11" rx="2" fill="#2d7a4a"/>
  <rect x="208" y="20" width="11" height="11" rx="2" fill="#2d7a4a"/>
  <rect x="208" y="34" width="11" height="11" rx="2" fill="#1a4a2e"/>
  <rect x="208" y="48" width="11" height="11" rx="2" fill="#333333"/>
  <rect x="208" y="62" width="11" height="11" rx="2" fill="#333333"/>
  <rect x="208" y="76" width="11" height="11" rx="2" fill="#333333"/>
  <rect x="208" y="90" width="11" height="11" rx="2" fill="#333333"/>
  <rect x="208" y="104" width="11" height="11" rx="2" fill="#333333"/>
  <rect x="222" y="20" width="11" height="11" rx="2" fill="#333333"/>
  <rect x="222" y="34" width="11" height="11" rx="2" fill="#333333"/>
  <rect x="222" y="48" width="11" height="11" rx="2" fill="#333333"/>
  <rect x="222" y="62" width="11" height="11" rx="2" fill="#333333"/>
  <rect x="222" y="76" width="11" height="11" rx="2" fill="#333333"/>
  <rect x="222" y="90" width="11" height="11" rx="2" fill="#333333"/>
  <rect x="222" y="104" width="11" height="11" rx="2" fill="#333333"/>
  <rect x="236" y="20" width="11" height="11" rx="2" fill="#333333"/>
  <rect x="236" y="34" width="11" height="11" rx="2" fill="#333333"/>
  <rect x="236" y="48" width="11" height="11" rx="2" fill="#333333"/>
  <rect x="236" y="62" width="11" height="11" rx="2" fill="#333333"/>
  <rect x="236" y="76" width="11" height="11" rx="2" fill="#333333"/>
  <rect x="236" y="90" width="11" height="11" rx="2" fill="#333333"/>
  <rect x="236" y="104" width="11" height="11" rx="2" fill="#333333"/>
  <rect x="250" y="20" width="11" height="11" rx="2" fill="#333333"/>
  <rect x="250" y="34" width="11" height="11" rx="2" fill="#333333"/>
  <rect x="250" y="48" width="11" height="11" rx="2" fill="#333333"/>
  <rect x="250" y="62" width="11" height="11" rx="2" fill="#333333"/>
  <rect x="250" y="76" width="11" height="11" rx="2" fill="#333333"/>
  <rect x="250" y="90" width="11" height="11" rx="2" fill="#333333"/>
  <rect x="250" y="104" width="11" height="11" rx="2" fill="#333333"/>
  <rect x="264" y="20" width="11" height="11" rx="2" fill="#333333"/>
  <rect x="264" y="34" width="11" height="11" rx="2" fill="#333333"/>
  <rect x="264" y="48" width="11" height="11" rx="2" fill="#333333"/>
  <rect x="264" y="62" width="11" height="11" rx="2" fill="#333333"/>
  <rect x="264" y="76" width="11" height="11" rx="2" fill="#333333"/>
  <rect x="264" y="90" width="11" height="11" rx="2" fill="#333333"/>
  <rect x="264" y="104" width="11" height="11" rx="2" fill="#333333"/>
  <rect x="278" y="20" width="11" height="11" rx="2" fill="#333333"/>
  <rect x="278" y="34" width="11" height="11" rx="2" fill="#333333"/>
  <rect x="278" y="48" width="11" height="11" rx="2" fill="#333333"/>
  <rect x="278" y="62" width="11" height="11" rx="2" fill="#333333"/>
  <rect x="278" y="76" width="11" height="11" rx="2" fill="#333333"/>
  <rect x="278" y="90" width="11" height="11" rx="2" fill="#333333"/>
  <rect x="278" y="104" width="11" height="11" rx="2" fill="#333333"/>
  <rect x="292" y="20" width="11" height="11" rx="2" fill="#333333"/>
  <rect x="292" y="34" width="11" height="11" rx="2" fill="#333333"/>
  <rect x="292" y="48" width="11" height="11" rx="2" fill="#333333"/>
  <rect x="292" y="62" width="11" height="11" rx="2" fill="#333333"/>
  <rect x="292" y="76" width="11" height="11" rx="2" fill="#333333"/>
  <rect x="292" y="90" width="11" height="11" rx="2" fill="#333333"/>
  <rect x="292" y="104" width="11" height="11" rx="2" fill="#333333"/>
  <rect x="306" y="20" width="11" height="11" rx="2" fill="#333333"/>
  <rect x="306" y="34" width="11" height="11" rx="2" fill="#333333"/>
  <rect x="306" y="48" width="11" height="11" rx="2" fill="#333333"/>
  <rect x="306" y="62" width="11" height="11" rx="2" fill="#333333"/>
  <rect x="306" y="76" width="11" height="11" rx="2" fill="#333333"/>
  <rect x="306" y="90" width="11" height="11" rx="2" fill="#333333"/>
  <rect x="306" y="104" width="11" height="11" rx="2" fill="#333333"/>
  <rect x="320" y="20" width="11" height="11" rx="2" fill="#333333"/>
  <rect x="320" y="34" width="11" height="11" rx="2" fill="#333333"/>
  <rect x="320" y="48" width="11" height="11" rx="2" fill="#333333"/>
  <rect x="320" y="62" width="11" height="11" rx="2" fill="#333333"/>
  <rect x="320" y="76" width="11" height="11" rx="2" fill="#333333"/>
  <rect x="320" y="90" width="11" height="11" rx="2" fill="#333333"/>
  <rect x="320" y="104" width="11" height="11" rx="2" fill="#333333"/>
  <rect x="334" y="20" width="11" height="11" rx="2" fill="#333333"/>
  <rect x="334" y="34" width="11" height="11" rx="2" fill="#333333"/>
  <rect x="334" y="48" width="11" height="11" rx="2" fill="#333333"/>
  <rect x="334" y="62" width="11" height="11" rx="2" fill="#333333"/>
  <rect x="334" y="76" width="11" height="11" rx="2" fill="#333333"/>
  <rect x="334" y="90" width="11" height="11" rx="2" fill="#333333"/>
  <rect x="334" y="104" width="11" height="11" rx="2" fill="#333333"/>
  <rect x="348" y="20" width="11" height="11" rx="2" fill="#333333"/>
  <rect x="348" y="34" width="11" height="11" rx="2" fill="#333333"/>
  <rect x="348" y="48" width="11" height="11" rx="2" fill="#333333"/>
  <rect x="348" y="62" width="11" height="11" rx="2" fill="#333333"/>
  <rect x="348" y="76" width="11" height="11" rx="2" fill="#333333"/>
  <rect x="348" y="90" width="11" height="11" rx="2" fill="#333333"/>
  <rect x="348" y="104" width="11" height="11" rx="2" fill="#333333"/>
  <rect x="362" y="20" width="11" height="11" rx="2" fill="#333333"/>
  <rect x="362" y="34" width="11" height="11" rx="2" fill="#333333"/>
  <rect x="362" y="48" width="11" height="11" rx="2" fill="#333333"/>
  <rect x="362" y="62" width="11" height="11" rx="2" fill="#333333"/>
  <rect x="362" y="76" width="11" height="11" rx="2" fill="#333333"/>
  <rect x="362" y="90" width="11" height="11" rx="2" fill="#333333"/>
  <rect x="362" y="104" width="11" height="11" rx="2" fill="#333333"/>
  <rect x="376" y="20" width="11" height="11" rx="2" fill="#333333"/>
  <rect x="376" y="34" width="11" height="11" rx="2" fill="#333333"/>
  <rect x="376" y="48" width="11" height="11" rx="2" fill="#333333"/>
  <rect x="376" y="62" width="11" height="11" rx="2" fill="#333333"/>
  <rect x="376" y="76" width="11" height="11" rx="2" fill="#333333"/>
  <rect x="376" y="90" width="11" height="11" rx="2" fill="#333333"/>
  <rect x="376" y="104" width="11" height="11" rx="2" fill="#333333"/>
  <rect x="390" y="20" width="11" height="11" rx="2" fill="#333333"/>
  <rect x="390" y="34" width="11" height="11" rx="2" fill="#333333"/>
  <rect x="390" y="48" width="11" height="11" rx="2" fill="#333333"/>
  <rect x="390" y="62" width="11" height="11" rx="2" fill="#333333"/>
  <rect x="390" y="76" width="11" height="11" rx="2" fill="#333333"/>
  <rect x="390" y="90" width="11" height="11" rx="2" fill="#333333"/>
  <rect x="390" y="104" width="11" height="11" rx="2" fill="#333333"/>
  <rect x="404" y="20" width="11" height="11" rx="2" fill="#333333"/>
  <rect x="404" y="34" width="11" height="11" rx="2" fill="#333333"/>
  <rect x="404" y="48" width="11" height="11" rx="2" fill="#333333"/>
  <rect x="404" y="62" width="11" height="11" rx="2" fill="#333333"/>
  <rect x="404" y="76" width="11" height="11" rx="2" fill="#333333"/>
  <rect x="404" y="90" width="11" height="11" rx="2" fill="#333333"/>
  <rect x="404" y="104" width="11" height="11" rx="2" fill="#333333"/>
  <rect x="418" y="20" width="11" height="11" rx="2" fill="#333333"/>
  <rect x="418" y="34" width="11" height="11" rx="2" fill="#333333"/>
  <rect x="418" y="48" width="11" height="11" rx="2" fill="#333333"/>
  <rect x="418" y="62" width="11" height="11" rx="2" fill="#333333"/>
  <rect x="418" y="76" width="11" height="11" rx="2" fill="#333333"/>
  <rect x="418" y="90" width="11" height="11" rx="2" fill="#333333"/>
  <rect x="418" y="104" width="11" height="11" rx="2" fill="#333333"/>
  <rect x="432" y="20" width="11" height="11" rx="2" fill="#333333"/>
  <rect x="432" y="34" width="11" height="11" rx="2" fill="#333333"/>
  <rect x="432" y="48" width="11" height="11" rx="2" fill="#333333"/>
  <rect x="432" y="62" width="11" height="11" rx="2" fill="#333333"/>
  <rect x="432" y="76" width="11" height="11" rx="2" fill="#333333"/>
  <rect x="432" y="90" width="11" height="11" rx="2" fill="#333333"/>
  <rect x="432" y="104" width="11" height="11" rx="2" fill="#333333"/>
  <rect x="446" y="20" width="11" height="11" rx="2" fill="#333333"/>
  <rect x="446" y="34" width="11" height="11" rx="2" fill="#333333"/>
  <rect x="446" y="48" width="11" height="11" rx="2" fill="#333333"/>
  <rect x="446" y="62" width="11" height="11" rx="2" fill="#333333"/>
  <rect x="446" y="76" width="11" height="11" rx="2" fill="#333333"/>
  <rect x="446" y="90" width="11" height="11" rx="2" fill="#333333"/>
  <rect x="446" y="104" width="11" height="11" rx="2" fill="#333333"/>
  <rect x="460" y="20" width="11" height="11" rx="2" fill="#333333"/>
  <rect x="460" y="34" width="11" height="11" rx="2" fill="#333333"/>
  <rect x="460" y="48" width="11" height="11" rx="2" fill="#333333"/>
  <rect x="460" y="62" width="11" height="11" rx="2" fill="#333333"/>
  <rect x="460" y="76" width="11" height="11" rx="2" fill="#333333"/>
  <rect x="460" y="90" width="11" height="11" rx="2" fill="#333333"/>
  <rect x="460" y="104" width="11" height="11" rx="2" fill="#333333"/>
  <rect x="474" y="20" width="11" height="11" rx="2" fill="#333333"/>
  <rect x="474" y="34" width="11" height="11" rx="2" fill="#333333"/>
  <rect x="474" y="48" width="11" height="11" rx="2" fill="#333333"/>
  <rect x="474" y="62" width="11" height="11" rx="2" fill="#333333"/>
  <rect x="474" y="76" width="11" height="11" rx="2" fill="#333333"/>
  <rect x="474" y="90" width="11" height="11" rx="2" fill="#333333"/>
  <rect x="474" y="104" width="11" height="11" rx="2" fill="#333333"/>
  <rect x="488" y="20" width="11" height="11" rx="2" fill="#333333"/>
  <rect x="488" y="34" width="11" height="11" rx="2" fill="#333333"/>
  <rect x="488" y="48" width="11" height="11" rx="2" fill="#333333"/>
  <rect x="488" y="62" width="11" height="11" rx="2" fill="#333333"/>
  <rect x="488" y="76" width="11" height="11" rx="2" fill="#333333"/>
  <rect x="488" y="90" width="11" height="11" rx="2" fill="#333333"/>
  <rect x="488" y="104" width="11" height="11" rx="2" fill="#333333"/>
  <rect x="502" y="20" width="11" height="11" rx="2" fill="#333333"/>
  <rect x="502" y="34" width="11" height="11" rx="2" fill="#333333"/>
  <rect x="502" y="48" width="11" height="11" rx="2" fill="#333333"/>
  <rect x="502" y="62" width="11" height="11" rx="2" fill="#333333"/>
  <rect x="502" y="76" width="11" height="11" rx="2" fill="#333333"/>
  <rect x="502" y="90" width="11" height="11" rx="2" fill="#333333"/>
  <rect x="502" y="104" width="11" height="11" rx="2" fill="#333333"/>
  <rect x="516" y="20" width="11" height="11" rx="2" fill="#333333"/>
  <rect x="516" y="34" width="11" height="11" rx="2" fill="#333333"/>
  <rect x="516" y="48" width="11" height="11" rx="2" fill="#333333"/>
  <rect x="516" y="62" width="11" height="11" rx="2" fill="#333333"/>
  <rect x="516" y="76" width="11" height="11" rx="2" fill="#333333"/>
  <rect x="516" y="90" width="11" height="11" rx="2" fill="#333333"/>
  <rect x="516" y="104" width="11" height="11" rx="2" fill="#333333"/>
  <rect x="530" y="20" width="11" height="11" rx="2" fill="#333333"/>
  <rect x="530" y="34" width="11" height="11" rx="2" fill="#333333"/>
  <rect x="530" y="48" width="11" height="11" rx="2" fill="#333333"/>
  <rect x="530" y="62" width="11" height="11" rx="2" fill="#333333"/>
  <rect x="530" y="76" width="11" height="11" rx="2" fill="#333333"/>
  <rect x="530" y="90" width="11" height="11" rx="2" fill="#333333"/>
  <rect x="530" y="104" width="11" height="11" rx="2" fill="#333333"/>
  <rect x="544" y="20" width="11" height="11" rx="2" fill="#333333"/>
  <rect x="544" y="34" width="11" height="11" rx="2" fill="#333333"/>
  <rect x="544" y="48" width="11" height="11" rx="2" fill="#333333"/>
  <rect x="544" y="62" width="11" height="11" rx="2" fill="#333333"/>
  <rect x="544" y="76" width="11" height="11" rx="2" fill="#333333"/>
  <rect x="544" y="90" width="11" height="11" rx="2" fill="#333333"/>
  <rect x="544" y="104" width="11" height="11" rx="2" fill="#333333"/>
  <rect x="558" y="20" width="11" height="11" rx="2" fill="#333333"/>
  <rect x="558" y="34" width="11" height="11" rx="2" fill="#333333"/>
  <rect x="558" y="48" width="11" height="11" rx="2" fill="#333333"/>
  <rect x="558" y="62" width="11" height="11" rx="2" fill="#333333"/>
  <rect x="558" y="76" width="11" height="11" rx="2" fill="#333333"/>
  <rect x="558" y="90" width="11" height="11" rx="2" fill="#333333"/>
  <rect x="558" y="104" width="11" height="11" rx="2" fill="#333333"/>
  <rect x="572" y="20" width="11" height="11" rx="2" fill="#333333"/>
  <rect x="572" y="34" width="11" height="11" rx="2" fill="#333333"/>
  <rect x="572" y="48" width="11" height="11" rx="2" fill="#333333"/>
  <rect x="572" y="62" width="11" height="11" rx="2" fill="#333333"/>
  <rect x="572" y="76" width="11" height="11" rx="2" fill="#333333"/>
  <rect x="572" y="90" width="11" height="11" rx="2" fill="#333333"/>
  <rect x="572" y="104" width="11" height="11" rx="2" fill="#333333"/>
  <rect x="586" y="20" width="11" height="11" rx="2" fill="#333333"/>
  <rect x="586" y="34" width="11" height="11" rx="2" fill="#333333"/>
  <rect x="586" y="48" width="11" height="11" rx="2" fill="#333333"/>
  <rect x="586" y="62" width="11" height="11" rx="2" fill="#333333"/>
  <rect x="586" y="76" width="11" height="11" rx="2" fill="#333333"/>
  <rect x="586" y="90" width="11" height="11" rx="2" fill="#333333"/>
  <rect x="586" y="104" width="11" height="11" rx="2" fill="#333333"/>
  <rect x="600" y="20" width="11" height="11" rx="2" fill="#333333"/>
  <rect x="600" y="34" width="11" height="11" rx="2" fill="#333333"/>
  <rect x="600" y="48" width="11" height="11" rx="2" fill="#333333"/>
  <rect x="600" y="62" width="11" height="11" rx="2" fill="#333333"/>
  <rect x="600" y="76" width="11" height="11" rx="2" fill="#333333"/>
  <rect x="600" y="90" width="11" height="11" rx="2" fill="#333333"/>
  <rect x="600" y="104" width="11" height="11" rx="2" fill="#333333"/>
  <rect x="614" y="20" width="11" height="11" rx="2" fill="#333333"/>
  <rect x="614" y="34" width="11" height="11" rx="2" fill="#333333"/>
  <rect x="614" y="48" width="11" height="11" rx="2" fill="#333333"/>
  <rect x="614" y="62" width="11" height="11" rx="2" fill="#333333"/>
  <rect x="614" y="76" width="11" height="11" rx="2" fill="#333333"/>
  <rect x="614" y="90" width="11" height="11" rx="2" fill="#333333"/>
  <rect x="614" y="104" width="11" height="11" rx="2" fill="#333333"/>
  <rect x="628" y="20" width="11" height="11" rx="2" fill="#333333"/>
  <rect x="628" y="34" width="11" height="11" rx="2" fill="#333333"/>
  <rect x="628" y="48" width="11" height="11" rx="2" fill="#333333"/>
  <rect x="628" y="62" width="11" height="11" rx="2" fill="#333333"/>
  <rect x="628" y="76" width="11" height="11" rx="2" fill="#333333"/>
  <rect x="628" y="90" width="11" height="11" rx="2" fill="#333333"/>
  <rect x="628" y="104" width="11" height="11" rx="2" fill="#333333"/>
  <rect x="642" y="20" width="11" height="11" rx="2" fill="#333333"/>
  <rect x="642" y="34" width="11" height="11" rx="2" fill="#333333"/>
  <rect x="642" y="48" width="11" height="11" rx="2" fill="#333333"/>
  <rect x="642" y="62" width="11" height="11" rx="2" fill="#333333"/>
  <rect x="642" y="76" width="11" height="11" rx="2" fill="#333333"/>
  <rect x="642" y="90" width="11" height="11" rx="2" fill="#333333"/>
  <rect x="642" y="104" width="11" height="11" rx="2" fill="#333333"/>
  <rect x="656" y="20" width="11" height="11" rx="2" fill="#333333"/>
  <rect x="656" y="34" width="11" height="11" rx="2" fill="#333333"/>
  <rect x="656" y="48" width="11" height="11" rx="2" fill="#333333"/>
  <rect x="656" y="62" width="11" height="11" rx="2" fill="#333333"/>
  <rect x="656" y="76" width="11" height="11" rx="2" fill="#333333"/>
  <rect x="656" y="90" width="11" height="11" rx="2" fill="#333333"/>
  <rect x="656" y="104" width="11" height="11" rx="2" fill="#333333"/>
  <rect x="670" y="20" width="11" height="11" rx="2" fill="#333333"/>
  <rect x="670" y="34" width="11" height="11" rx="2" fill="#333333"/>
  <rect x="670" y="48" width="11" height="11" rx="2" fill="#333333"/>
  <rect x="670" y="62" width="11" height="11" rx="2" fill="#333333"/>
  <rect x="670" y="76" width="11" height="11" rx="2" fill="#333333"/>
  <rect x="670" y="90" width="11" height="11" rx="2" fill="#333333"/>
  <rect x="670" y="104" width="11" height="11" rx="2" fill="#333333"/>
  <rect x="684" y="20" width="11" height="11" rx="2" fill="#333333"/>
  <rect x="684" y="34" width="11" height="11" rx="2" fill="#333333"/>
  <rect x="684" y="48" width="11" height="11" rx="2" fill="#333333"/>
  <rect x="684" y="62" width="11" height="11" rx="2" fill="#333333"/>
  <rect x="684" y="76" width="11" height="11" rx="2" fill="#333333"/>
  <rect x="684" y="90" width="11" height="11" rx="2" fill="#333333"/>
  <rect x="684" y="104" width="11" height="11" rx="2" fill="#333333"/>
  <rect x="698" y="20" width="11" height="11" rx="2" fill="#333333"/>
  <rect x="698" y="34" width="11" height="11" rx="2" fill="#333333"/>
  <rect x="698" y="48" width="11" height="11" rx="2" fill="#333333"/>
  <rect x="698" y="62" width="11" height="11" rx="2" fill="#333333"/>
  <rect x="698" y="76" width="11" height="11" rx="2" fill="#333333"/>
  <rect x="698" y="90" width="11" height="11" rx="2" fill="#333333"/>
  <rect x="698" y="104" width="11" height="11" rx="2" fill="#333333"/>
  <rect x="712" y="20" width="11" height="11" rx="2" fill="#333333"/>
  <rect x="712" y="34" width="11" height="11" rx="2" fill="#333333"/>
  <rect x="712" y="48" width="11" height="11" rx="2" fill="#333333"/>
  <rect x="712" y="62" width="11" height="11" rx="2" fill="#333333"/>
  <rect x="712" y="76" width="11" height="11" rx="2" fill="#333333"/>
  <rect x="712" y="90" width="11" height="11" rx="2" fill="#333333"/>
  <rect x="712" y="104" width="11" height="11" rx="2" fill="#333333"/>
  <rect x="726" y="20" width="11" height="11" rx="2" fill="#333333"/>
  <rect x="726" y="34" width="11" height="11" rx="2" fill="#333333"/>
  <rect x="726" y="48" width="11" height="11" rx="2" fill="#333333"/>
  <rect x="726" y="62" width="11" height="11" rx="2" fill="#333333"/>
  <rect x="726" y="76" width="11" height="11" rx="2" fill="#333333"/>
  <rect x="726" y="90" width="11" height="11" rx="2" fill="#333333"/>
  <rect x="726" y="104" width="11" height="11" rx="2" fill="#333333"/>
  <rect x="740" y="20" width="11" height="11" rx="2" fill="#333333"/>
  <rect x="740" y="34" width="11" height="11" rx="2" fill="#333333"/>
  <rect x="740" y="48" width="11" height="11" rx="2" fill="#333333"/>
  <rect x="740" y="62" width="11" height="11" rx="2" fill="#333333"/>
  <rect x="740" y="76" width="11" height="11" rx="2" fill="#333333"/>
  <rect x="740" y="90" width="11" height="11" rx="2" fill="#333333"/>
  <rect x="740" y="104" width="11" height="11" rx="2" fill="#333333"/>
  <rect x="754" y="20" width="11" height="11" rx="2" fill="#333333"/>
  <rect x="754" y="34" width="11" height="11" rx="2" fill="#333333"/>
  <rect x="754" y="48" width="11" height="11" rx="2" fill="#333333"/>
  <rect x="754" y="62" width="11" height="11" rx="2" fill="#333333"/>
  <rect x="754" y="76" width="11" height="11" rx="2" fill="#333333"/>
  <rect x="754" y="90" width="11" height="11" rx="2" fill="#333333"/>
  </g>

  <!-- THIS WEEK panel (left) -->
  <rect x="16" y="88" width="390" height="120" rx="8" ry="8" fill="none" stroke="#6a6bf6" stroke-width="1" opacity="0.5"/>
  <text x="50" y="158" font-family="'Courier New', Courier, monospace" font-size="18.5" fill="#4a9e7a" letter-spacing="2">THIS WEEK</text>
  <text x="207" y="136" font-family="'Courier New', Courier, monospace" font-size="28" fill="#6bf1b6" filter="url(#glow)">154 commits</text>
  <text x="195" y="186" font-family="'Courier New', Courier, monospace" font-size="16" fill="#4a9e7a">+14,285 / -819</text>

  <!-- LANGUAGES panel (right) -->
  <rect x="425" y="86" width="390" height="120" rx="8" ry="8" fill="none" stroke="#6a6bf6" stroke-width="1" opacity="0.5"/>
  <text x="434" y="98" font-family="'Courier New', Courier, monospace" font-size="11" fill="#4a9e7a" letter-spacing="2">LANGUAGES</text>
    <rect x="434" y="100" width="106" height="12" rx="2" fill="#f1e05a" opacity="0.85"/>
  <text x="644" y="110" font-family="'Courier New', Courier, monospace" font-size="12" fill="#f1e05a">JavaScript 53%</text>
  <rect x="434" y="122" width="62" height="12" rx="2" fill="#3572A5" opacity="0.85"/>
  <text x="644" y="132" font-family="'Courier New', Courier, monospace" font-size="12" fill="#3572A5">Python 31%</text>
  <rect x="434" y="144" width="22" height="12" rx="2" fill="#dea584" opacity="0.85"/>
  <text x="644" y="154" font-family="'Courier New', Courier, monospace" font-size="12" fill="#dea584">Rust 11%</text>
  <rect x="434" y="166" width="10" height="12" rx="2" fill="#dea584" opacity="0.85"/>
  <text x="644" y="176" font-family="'Courier New', Courier, monospace" font-size="12" fill="#dea584">Other 5%</text>

  <!-- ASCII Hero -->
  <g filter="url(#hero_glow)">
      <text x="343.2" y="280" font-family="'Courier New', Courier, monospace" font-size="16" fill="#919baf" opacity="0.85">******<animate attributeName="fill" values="#919baf;#a5a091;#9ba591;#919baf" dur="12s" begin="1.7s" repeatCount="indefinite"/><animate attributeName="opacity" values="0.7;1;0.8;1;0.7" dur="8s" begin="1.2s" repeatCount="indefinite"/></text>
  <text x="468.0" y="280" font-family="'Courier New', Courier, monospace" font-size="16" fill="#ad9387" opacity="0.85">******<animate attributeName="fill" values="#ad9387;#919baf;#a5a091;#ad9387" dur="12s" begin="4.1s" repeatCount="indefinite"/><animate attributeName="opacity" values="0.7;1;0.8;1;0.7" dur="8s" begin="2.9s" repeatCount="indefinite"/></text>
  <text x="314.4" y="298" font-family="'Courier New', Courier, monospace" font-size="16" fill="#919baf" opacity="0.85">**********<animate attributeName="fill" values="#919baf;#a5a091;#9ba591;#919baf" dur="12s" begin="2.1s" repeatCount="indefinite"/><animate attributeName="opacity" values="0.7;1;0.8;1;0.7" dur="8s" begin="1.5s" repeatCount="indefinite"/></text>
  <text x="439.2" y="298" font-family="'Courier New', Courier, monospace" font-size="16" fill="#ad9387" opacity="0.85">**********<animate attributeName="fill" values="#ad9387;#919baf;#a5a091;#ad9387" dur="12s" begin="4.5s" repeatCount="indefinite"/><animate attributeName="opacity" values="0.7;1;0.8;1;0.7" dur="8s" begin="3.1s" repeatCount="indefinite"/></text>
  <text x="304.8" y="316" font-family="'Courier New', Courier, monospace" font-size="16" fill="#a5a091" opacity="0.85">************<animate attributeName="fill" values="#a5a091;#9ba591;#87a99e;#a5a091" dur="12s" begin="2.6s" repeatCount="indefinite"/><animate attributeName="opacity" values="0.7;1;0.8;1;0.7" dur="8s" begin="1.8s" repeatCount="indefinite"/></text>
  <text x="429.6" y="316" font-family="'Courier New', Courier, monospace" font-size="16" fill="#919baf" opacity="0.85">************<animate attributeName="fill" values="#919baf;#a5a091;#9ba591;#919baf" dur="12s" begin="5.1s" repeatCount="indefinite"/><animate attributeName="opacity" values="0.7;1;0.8;1;0.7" dur="8s" begin="3.6s" repeatCount="indefinite"/></text>
  <text x="295.2" y="334" font-family="'Courier New', Courier, monospace" font-size="16" fill="#87a99e" opacity="0.85">***************************<animate attributeName="fill" values="#87a99e;#ad9387;#919baf;#87a99e" dur="12s" begin="4.4s" repeatCount="indefinite"/><animate attributeName="opacity" values="0.7;1;0.8;1;0.7" dur="8s" begin="3.1s" repeatCount="indefinite"/></text>
  <text x="304.8" y="352" font-family="'Courier New', Courier, monospace" font-size="16" fill="#ad9387" opacity="0.85">*************************<animate attributeName="fill" values="#ad9387;#919baf;#a5a091;#ad9387" dur="12s" begin="5.0s" repeatCount="indefinite"/><animate attributeName="opacity" values="0.7;1;0.8;1;0.7" dur="8s" begin="3.5s" repeatCount="indefinite"/></text>
  <text x="314.4" y="370" font-family="'Courier New', Courier, monospace" font-size="16" fill="#919baf" opacity="0.85">***********************<animate attributeName="fill" values="#919baf;#a5a091;#9ba591;#919baf" dur="12s" begin="5.5s" repeatCount="indefinite"/><animate attributeName="opacity" values="0.7;1;0.8;1;0.7" dur="8s" begin="3.8s" repeatCount="indefinite"/></text>
  <text x="333.6" y="388" font-family="'Courier New', Courier, monospace" font-size="16" fill="#919baf" opacity="0.85">*******************<animate attributeName="fill" values="#919baf;#a5a091;#9ba591;#919baf" dur="12s" begin="6.1s" repeatCount="indefinite"/><animate attributeName="opacity" values="0.7;1;0.8;1;0.7" dur="8s" begin="4.3s" repeatCount="indefinite"/></text>
  <text x="352.8" y="406" font-family="'Courier New', Courier, monospace" font-size="16" fill="#a5a091" opacity="0.85">***************<animate attributeName="fill" values="#a5a091;#9ba591;#87a99e;#a5a091" dur="12s" begin="6.7s" repeatCount="indefinite"/><animate attributeName="opacity" values="0.7;1;0.8;1;0.7" dur="8s" begin="4.7s" repeatCount="indefinite"/></text>
  <text x="372.0" y="424" font-family="'Courier New', Courier, monospace" font-size="16" fill="#a5a091" opacity="0.85">***********<animate attributeName="fill" values="#a5a091;#9ba591;#87a99e;#a5a091" dur="12s" begin="7.2s" repeatCount="indefinite"/><animate attributeName="opacity" values="0.7;1;0.8;1;0.7" dur="8s" begin="5.0s" repeatCount="indefinite"/></text>
  <text x="391.2" y="442" font-family="'Courier New', Courier, monospace" font-size="16" fill="#9ba591" opacity="0.85">*******<animate attributeName="fill" values="#9ba591;#87a99e;#ad9387;#9ba591" dur="12s" begin="7.8s" repeatCount="indefinite"/><animate attributeName="opacity" values="0.7;1;0.8;1;0.7" dur="8s" begin="5.5s" repeatCount="indefinite"/></text>
  <text x="410.4" y="460" font-family="'Courier New', Courier, monospace" font-size="16" fill="#9ba591" opacity="0.85">***<animate attributeName="fill" values="#9ba591;#87a99e;#ad9387;#9ba591" dur="12s" begin="8.3s" repeatCount="indefinite"/><animate attributeName="opacity" values="0.7;1;0.8;1;0.7" dur="8s" begin="5.8s" repeatCount="indefinite"/></text>
  <text x="420.0" y="478" font-family="'Courier New', Courier, monospace" font-size="16" fill="#87a99e" opacity="0.85">*<animate attributeName="fill" values="#87a99e;#ad9387;#919baf;#87a99e" dur="12s" begin="8.9s" repeatCount="indefinite"/><animate attributeName="opacity" values="0.7;1;0.8;1;0.7" dur="8s" begin="6.2s" repeatCount="indefinite"/></text>
  </g>

  <!-- Contribution count -->
  <text x="420" y="655" text-anchor="middle" font-family="'Courier New', Courier, monospace" font-size="11" fill="#4a9e7a">466 contributions so far in 2026</text>
</svg>
