<?xml version="1.0" encoding="UTF-8"?>
<svg xmlns="http://www.w3.org/2000/svg" 
     width="920" height="752" 
     viewBox="0 0 920 752">

  <!-- Canvas background (GitHub dark) -->
  <rect width="920" height="752" fill="#0d1117"/>

  <!-- HERO CARD -->
  <g transform="translate(40, 40)">

  <defs>
    <filter id="hero_glow">
      <feGaussianBlur stdDeviation="2" result="blur"/>
      <feMerge>
        <feMergeNode in="blur"/>
        <feMergeNode in="SourceGraphic"/>
      </feMerge>
    </filter>
  </defs>

  <!-- Background -->
  <rect width="840" height="200" rx="12" ry="12" fill="#000" stroke="#6a6bf6" stroke-width="2"/>

  <!-- Terminal prompt: name // handle -->
  <text x="40" y="90" font-family="'Courier New', Courier, monospace" font-size="26" fill="#6bf1b6">
    &gt; sl revoy // revelri<tspan fill="#6bf1b6" font-size="26">
      <animate attributeName="opacity" values="0;1;0" dur="1.2s" repeatCount="indefinite"/>|</tspan>
  </text>

  <!-- Tagline -->
  <text x="40" y="120" font-family="'Courier New', Courier, monospace" font-size="13" fill="#4a9e7a"></text>

  <!-- Commit count (hero number) -->
  <text x="800" y="85" text-anchor="end" font-family="'Courier New', Courier, monospace" font-size="32" fill="#f5e642" filter="url(#hero_glow)">125</text>
  <text x="800" y="108" text-anchor="end" font-family="'Courier New', Courier, monospace" font-size="13" fill="#4a9e7a">commits / 7d</text>

  <!-- Time since last commit -->
  <text x="800" y="130" text-anchor="end" font-family="'Courier New', Courier, monospace" font-size="13" fill="#4a9e7a">01m ago</text>

  </g>

  <!-- STATS CARD -->
  <g transform="translate(40, 256)">

  <defs>
    <filter id="stats_glow">
      <feGaussianBlur stdDeviation="2" result="blur"/>
      <feMerge>
        <feMergeNode in="blur"/>
        <feMergeNode in="SourceGraphic"/>
      </feMerge>
    </filter>
  </defs>

  <!-- Background -->
  <rect width="840" height="280" rx="12" ry="12" fill="#000" stroke="#6a6bf6" stroke-width="2"/>

  <!-- Panel 1: STREAK (top-left) -->
  <rect x="20" y="20" width="390" height="120" rx="8" ry="8" fill="none" stroke="#6a6bf6" stroke-width="1" opacity="0.5"/>
  <text x="40" y="48" font-family="'Courier New', Courier, monospace" font-size="11" fill="#4a9e7a" letter-spacing="2">STREAK</text>
  <text x="40" y="86" font-family="'Courier New', Courier, monospace" font-size="28" fill="#6bf1b6" filter="url(#stats_glow)">3 days</text>
  <text x="40" y="112" font-family="'Courier New', Courier, monospace" font-size="12" fill="#4a9e7a">longest: 6 · avg/day: 17.9</text>

  <!-- Panel 2: LANGUAGES (top-right) -->
  <rect x="430" y="20" width="390" height="120" rx="8" ry="8" fill="none" stroke="#6a6bf6" stroke-width="1" opacity="0.5"/>
  <text x="450" y="48" font-family="'Courier New', Courier, monospace" font-size="11" fill="#4a9e7a" letter-spacing="2">LANGUAGES</text>
    <rect x="450" y="60" width="108" height="12" rx="2" fill="#6bf1b6" opacity="0.72"/>
  <text x="660" y="70" font-family="'Courier New', Courier, monospace" font-size="12" fill="#4a9e7a">JavaScript 54%</text>
  <rect x="450" y="82" width="62" height="12" rx="2" fill="#6bf1b6" opacity="0.59"/>
  <text x="660" y="92" font-family="'Courier New', Courier, monospace" font-size="12" fill="#4a9e7a">Python 31%</text>
  <rect x="450" y="104" width="18" height="12" rx="2" fill="#6bf1b6" opacity="0.45"/>
  <text x="660" y="114" font-family="'Courier New', Courier, monospace" font-size="12" fill="#4a9e7a">Rust 9%</text>
  <rect x="450" y="126" width="12" height="12" rx="2" fill="#6bf1b6" opacity="0.44"/>
  <text x="660" y="136" font-family="'Courier New', Courier, monospace" font-size="12" fill="#4a9e7a">Other 6%</text>

  <!-- Panel 3: THIS WEEK (full-width bottom) -->
  <rect x="20" y="160" width="800" height="100" rx="8" ry="8" fill="none" stroke="#6a6bf6" stroke-width="1" opacity="0.5"/>
  <text x="40" y="188" font-family="'Courier New', Courier, monospace" font-size="11" fill="#4a9e7a" letter-spacing="2">THIS WEEK</text>
  <text x="40" y="228" font-family="'Courier New', Courier, monospace" font-size="28" fill="#6bf1b6" filter="url(#stats_glow)">125 commits</text>
  <text x="340" y="228" font-family="'Courier New', Courier, monospace" font-size="16" fill="#4a9e7a">+722 / -329</text>
  <text x="600" y="228" font-family="'Courier New', Courier, monospace" font-size="16" fill="#4a9e7a">0 PRs · 0 issues</text>

  </g>

  <!-- ACTIVITY CARD -->
  <g transform="translate(40, 552)">

  <defs>
    </defs>

  <!-- Background -->
  <rect width="840" height="160" rx="12" ry="12" fill="#000" stroke="#6a6bf6" stroke-width="2"/>

  <!-- Heatmap grid -->
    <rect x="40" y="20" width="11" height="11" rx="2" fill="#333333"/>
  <rect x="40" y="34" width="11" height="11" rx="2" fill="#333333"/>
  <rect x="40" y="48" width="11" height="11" rx="2" fill="#1a4a2e"/>
  <rect x="40" y="62" width="11" height="11" rx="2" fill="#333333"/>
  <rect x="40" y="76" width="11" height="11" rx="2" fill="#333333"/>
  <rect x="40" y="90" width="11" height="11" rx="2" fill="#333333"/>
  <rect x="40" y="104" width="11" height="11" rx="2" fill="#333333"/>
  <rect x="54" y="20" width="11" height="11" rx="2" fill="#333333"/>
  <rect x="54" y="34" width="11" height="11" rx="2" fill="#333333"/>
  <rect x="54" y="48" width="11" height="11" rx="2" fill="#333333"/>
  <rect x="54" y="62" width="11" height="11" rx="2" fill="#1a4a2e"/>
  <rect x="54" y="76" width="11" height="11" rx="2" fill="#1a4a2e"/>
  <rect x="54" y="90" width="11" height="11" rx="2" fill="#1a4a2e"/>
  <rect x="54" y="104" width="11" height="11" rx="2" fill="#333333"/>
  <rect x="68" y="20" width="11" height="11" rx="2" fill="#1a4a2e"/>
  <rect x="68" y="34" width="11" height="11" rx="2" fill="#1a4a2e"/>
  <rect x="68" y="48" width="11" height="11" rx="2" fill="#1a4a2e"/>
  <rect x="68" y="62" width="11" height="11" rx="2" fill="#1a4a2e"/>
  <rect x="68" y="76" width="11" height="11" rx="2" fill="#1a4a2e"/>
  <rect x="68" y="90" width="11" height="11" rx="2" fill="#1a4a2e"/>
  <rect x="68" y="104" width="11" height="11" rx="2" fill="#333333"/>
  <rect x="82" y="20" width="11" height="11" rx="2" fill="#333333"/>
  <rect x="82" y="34" width="11" height="11" rx="2" fill="#333333"/>
  <rect x="82" y="48" width="11" height="11" rx="2" fill="#333333"/>
  <rect x="82" y="62" width="11" height="11" rx="2" fill="#1a4a2e"/>
  <rect x="82" y="76" width="11" height="11" rx="2" fill="#1a4a2e"/>
  <rect x="82" y="90" width="11" height="11" rx="2" fill="#1a4a2e"/>
  <rect x="82" y="104" width="11" height="11" rx="2" fill="#333333"/>
  <rect x="96" y="20" width="11" height="11" rx="2" fill="#1a4a2e"/>
  <rect x="96" y="34" width="11" height="11" rx="2" fill="#1a4a2e"/>
  <rect x="96" y="48" width="11" height="11" rx="2" fill="#1a4a2e"/>
  <rect x="96" y="62" width="11" height="11" rx="2" fill="#333333"/>
  <rect x="96" y="76" width="11" height="11" rx="2" fill="#333333"/>
  <rect x="96" y="90" width="11" height="11" rx="2" fill="#333333"/>
  <rect x="96" y="104" width="11" height="11" rx="2" fill="#1a4a2e"/>
  <rect x="110" y="20" width="11" height="11" rx="2" fill="#333333"/>
  <rect x="110" y="34" width="11" height="11" rx="2" fill="#333333"/>
  <rect x="110" y="48" width="11" height="11" rx="2" fill="#333333"/>
  <rect x="110" y="62" width="11" height="11" rx="2" fill="#1a4a2e"/>
  <rect x="110" y="76" width="11" height="11" rx="2" fill="#1a4a2e"/>
  <rect x="110" y="90" width="11" height="11" rx="2" fill="#333333"/>
  <rect x="110" y="104" width="11" height="11" rx="2" fill="#1a4a2e"/>
  <rect x="124" y="20" width="11" height="11" rx="2" fill="#333333"/>
  <rect x="124" y="34" width="11" height="11" rx="2" fill="#333333"/>
  <rect x="124" y="48" width="11" height="11" rx="2" fill="#1a4a2e"/>
  <rect x="124" y="62" width="11" height="11" rx="2" fill="#333333"/>
  <rect x="124" y="76" width="11" height="11" rx="2" fill="#333333"/>
  <rect x="124" y="90" width="11" height="11" rx="2" fill="#333333"/>
  <rect x="124" y="104" width="11" height="11" rx="2" fill="#333333"/>
  <rect x="138" y="20" width="11" height="11" rx="2" fill="#333333"/>
  <rect x="138" y="34" width="11" height="11" rx="2" fill="#1a4a2e"/>
  <rect x="138" y="48" width="11" height="11" rx="2" fill="#1a4a2e"/>
  <rect x="138" y="62" width="11" height="11" rx="2" fill="#333333"/>
  <rect x="138" y="76" width="11" height="11" rx="2" fill="#333333"/>
  <rect x="138" y="90" width="11" height="11" rx="2" fill="#333333"/>
  <rect x="138" y="104" width="11" height="11" rx="2" fill="#1a4a2e"/>
  <rect x="152" y="20" width="11" height="11" rx="2" fill="#333333"/>
  <rect x="152" y="34" width="11" height="11" rx="2" fill="#1a4a2e"/>
  <rect x="152" y="48" width="11" height="11" rx="2" fill="#1a4a2e"/>
  <rect x="152" y="62" width="11" height="11" rx="2" fill="#1a4a2e"/>
  <rect x="152" y="76" width="11" height="11" rx="2" fill="#333333"/>
  <rect x="152" y="90" width="11" height="11" rx="2" fill="#333333"/>
  <rect x="152" y="104" width="11" height="11" rx="2" fill="#333333"/>
  <rect x="166" y="20" width="11" height="11" rx="2" fill="#333333"/>
  <rect x="166" y="34" width="11" height="11" rx="2" fill="#333333"/>
  <rect x="166" y="48" width="11" height="11" rx="2" fill="#1a4a2e"/>
  <rect x="166" y="62" width="11" height="11" rx="2" fill="#333333"/>
  <rect x="166" y="76" width="11" height="11" rx="2" fill="#333333"/>
  <rect x="166" y="90" width="11" height="11" rx="2" fill="#333333"/>
  <rect x="166" y="104" width="11" height="11" rx="2" fill="#1a4a2e"/>
  <rect x="180" y="20" width="11" height="11" rx="2" fill="#333333"/>
  <rect x="180" y="34" width="11" height="11" rx="2" fill="#1a4a2e"/>
  <rect x="180" y="48" width="11" height="11" rx="2" fill="#333333"/>
  <rect x="180" y="62" width="11" height="11" rx="2" fill="#333333"/>
  <rect x="180" y="76" width="11" height="11" rx="2" fill="#6bf1b6"/>
  <rect x="180" y="90" width="11" height="11" rx="2" fill="#4a9e7a"/>
  <rect x="180" y="104" width="11" height="11" rx="2" fill="#333333"/>
  <rect x="194" y="20" width="11" height="11" rx="2" fill="#333333"/>
  <rect x="194" y="34" width="11" height="11" rx="2" fill="#2d7a4a"/>
  <rect x="194" y="48" width="11" height="11" rx="2" fill="#2d7a4a"/>
  <rect x="194" y="62" width="11" height="11" rx="2" fill="#1a4a2e"/>
  <rect x="194" y="76" width="11" height="11" rx="2" fill="#333333"/>
  <rect x="194" y="90" width="11" height="11" rx="2" fill="#333333"/>
  <rect x="194" y="104" width="11" height="11" rx="2" fill="#333333"/>
  <rect x="208" y="20" width="11" height="11" rx="2" fill="#333333"/>
  <rect x="208" y="34" width="11" height="11" rx="2" fill="#333333"/>
  <rect x="208" y="48" width="11" height="11" rx="2" fill="#333333"/>
  <rect x="208" y="62" width="11" height="11" rx="2" fill="#333333"/>
  <rect x="208" y="76" width="11" height="11" rx="2" fill="#333333"/>
  <rect x="208" y="90" width="11" height="11" rx="2" fill="#333333"/>
  <rect x="208" y="104" width="11" height="11" rx="2" fill="#333333"/>
  <rect x="222" y="20" width="11" height="11" rx="2" fill="#333333"/>
  <rect x="222" y="34" width="11" height="11" rx="2" fill="#333333"/>
  <rect x="222" y="48" width="11" height="11" rx="2" fill="#333333"/>
  <rect x="222" y="62" width="11" height="11" rx="2" fill="#333333"/>
  <rect x="222" y="76" width="11" height="11" rx="2" fill="#333333"/>
  <rect x="222" y="90" width="11" height="11" rx="2" fill="#333333"/>
  <rect x="222" y="104" width="11" height="11" rx="2" fill="#333333"/>
  <rect x="236" y="20" width="11" height="11" rx="2" fill="#333333"/>
  <rect x="236" y="34" width="11" height="11" rx="2" fill="#333333"/>
  <rect x="236" y="48" width="11" height="11" rx="2" fill="#333333"/>
  <rect x="236" y="62" width="11" height="11" rx="2" fill="#333333"/>
  <rect x="236" y="76" width="11" height="11" rx="2" fill="#333333"/>
  <rect x="236" y="90" width="11" height="11" rx="2" fill="#333333"/>
  <rect x="236" y="104" width="11" height="11" rx="2" fill="#333333"/>
  <rect x="250" y="20" width="11" height="11" rx="2" fill="#333333"/>
  <rect x="250" y="34" width="11" height="11" rx="2" fill="#333333"/>
  <rect x="250" y="48" width="11" height="11" rx="2" fill="#333333"/>
  <rect x="250" y="62" width="11" height="11" rx="2" fill="#333333"/>
  <rect x="250" y="76" width="11" height="11" rx="2" fill="#333333"/>
  <rect x="250" y="90" width="11" height="11" rx="2" fill="#333333"/>
  <rect x="250" y="104" width="11" height="11" rx="2" fill="#333333"/>
  <rect x="264" y="20" width="11" height="11" rx="2" fill="#333333"/>
  <rect x="264" y="34" width="11" height="11" rx="2" fill="#333333"/>
  <rect x="264" y="48" width="11" height="11" rx="2" fill="#333333"/>
  <rect x="264" y="62" width="11" height="11" rx="2" fill="#333333"/>
  <rect x="264" y="76" width="11" height="11" rx="2" fill="#333333"/>
  <rect x="264" y="90" width="11" height="11" rx="2" fill="#333333"/>
  <rect x="264" y="104" width="11" height="11" rx="2" fill="#333333"/>
  <rect x="278" y="20" width="11" height="11" rx="2" fill="#333333"/>
  <rect x="278" y="34" width="11" height="11" rx="2" fill="#333333"/>
  <rect x="278" y="48" width="11" height="11" rx="2" fill="#333333"/>
  <rect x="278" y="62" width="11" height="11" rx="2" fill="#333333"/>
  <rect x="278" y="76" width="11" height="11" rx="2" fill="#333333"/>
  <rect x="278" y="90" width="11" height="11" rx="2" fill="#333333"/>
  <rect x="278" y="104" width="11" height="11" rx="2" fill="#333333"/>
  <rect x="292" y="20" width="11" height="11" rx="2" fill="#333333"/>
  <rect x="292" y="34" width="11" height="11" rx="2" fill="#333333"/>
  <rect x="292" y="48" width="11" height="11" rx="2" fill="#333333"/>
  <rect x="292" y="62" width="11" height="11" rx="2" fill="#333333"/>
  <rect x="292" y="76" width="11" height="11" rx="2" fill="#333333"/>
  <rect x="292" y="90" width="11" height="11" rx="2" fill="#333333"/>
  <rect x="292" y="104" width="11" height="11" rx="2" fill="#333333"/>
  <rect x="306" y="20" width="11" height="11" rx="2" fill="#333333"/>
  <rect x="306" y="34" width="11" height="11" rx="2" fill="#333333"/>
  <rect x="306" y="48" width="11" height="11" rx="2" fill="#333333"/>
  <rect x="306" y="62" width="11" height="11" rx="2" fill="#333333"/>
  <rect x="306" y="76" width="11" height="11" rx="2" fill="#333333"/>
  <rect x="306" y="90" width="11" height="11" rx="2" fill="#333333"/>
  <rect x="306" y="104" width="11" height="11" rx="2" fill="#333333"/>
  <rect x="320" y="20" width="11" height="11" rx="2" fill="#333333"/>
  <rect x="320" y="34" width="11" height="11" rx="2" fill="#333333"/>
  <rect x="320" y="48" width="11" height="11" rx="2" fill="#333333"/>
  <rect x="320" y="62" width="11" height="11" rx="2" fill="#333333"/>
  <rect x="320" y="76" width="11" height="11" rx="2" fill="#333333"/>
  <rect x="320" y="90" width="11" height="11" rx="2" fill="#333333"/>
  <rect x="320" y="104" width="11" height="11" rx="2" fill="#333333"/>
  <rect x="334" y="20" width="11" height="11" rx="2" fill="#333333"/>
  <rect x="334" y="34" width="11" height="11" rx="2" fill="#333333"/>
  <rect x="334" y="48" width="11" height="11" rx="2" fill="#333333"/>
  <rect x="334" y="62" width="11" height="11" rx="2" fill="#333333"/>
  <rect x="334" y="76" width="11" height="11" rx="2" fill="#333333"/>
  <rect x="334" y="90" width="11" height="11" rx="2" fill="#333333"/>
  <rect x="334" y="104" width="11" height="11" rx="2" fill="#333333"/>
  <rect x="348" y="20" width="11" height="11" rx="2" fill="#333333"/>
  <rect x="348" y="34" width="11" height="11" rx="2" fill="#333333"/>
  <rect x="348" y="48" width="11" height="11" rx="2" fill="#333333"/>
  <rect x="348" y="62" width="11" height="11" rx="2" fill="#333333"/>
  <rect x="348" y="76" width="11" height="11" rx="2" fill="#333333"/>
  <rect x="348" y="90" width="11" height="11" rx="2" fill="#333333"/>
  <rect x="348" y="104" width="11" height="11" rx="2" fill="#333333"/>
  <rect x="362" y="20" width="11" height="11" rx="2" fill="#333333"/>
  <rect x="362" y="34" width="11" height="11" rx="2" fill="#333333"/>
  <rect x="362" y="48" width="11" height="11" rx="2" fill="#333333"/>
  <rect x="362" y="62" width="11" height="11" rx="2" fill="#333333"/>
  <rect x="362" y="76" width="11" height="11" rx="2" fill="#333333"/>
  <rect x="362" y="90" width="11" height="11" rx="2" fill="#333333"/>
  <rect x="362" y="104" width="11" height="11" rx="2" fill="#333333"/>
  <rect x="376" y="20" width="11" height="11" rx="2" fill="#333333"/>
  <rect x="376" y="34" width="11" height="11" rx="2" fill="#333333"/>
  <rect x="376" y="48" width="11" height="11" rx="2" fill="#333333"/>
  <rect x="376" y="62" width="11" height="11" rx="2" fill="#333333"/>
  <rect x="376" y="76" width="11" height="11" rx="2" fill="#333333"/>
  <rect x="376" y="90" width="11" height="11" rx="2" fill="#333333"/>
  <rect x="376" y="104" width="11" height="11" rx="2" fill="#333333"/>
  <rect x="390" y="20" width="11" height="11" rx="2" fill="#333333"/>
  <rect x="390" y="34" width="11" height="11" rx="2" fill="#333333"/>
  <rect x="390" y="48" width="11" height="11" rx="2" fill="#333333"/>
  <rect x="390" y="62" width="11" height="11" rx="2" fill="#333333"/>
  <rect x="390" y="76" width="11" height="11" rx="2" fill="#333333"/>
  <rect x="390" y="90" width="11" height="11" rx="2" fill="#333333"/>
  <rect x="390" y="104" width="11" height="11" rx="2" fill="#333333"/>
  <rect x="404" y="20" width="11" height="11" rx="2" fill="#333333"/>
  <rect x="404" y="34" width="11" height="11" rx="2" fill="#333333"/>
  <rect x="404" y="48" width="11" height="11" rx="2" fill="#333333"/>
  <rect x="404" y="62" width="11" height="11" rx="2" fill="#333333"/>
  <rect x="404" y="76" width="11" height="11" rx="2" fill="#333333"/>
  <rect x="404" y="90" width="11" height="11" rx="2" fill="#333333"/>
  <rect x="404" y="104" width="11" height="11" rx="2" fill="#333333"/>
  <rect x="418" y="20" width="11" height="11" rx="2" fill="#333333"/>
  <rect x="418" y="34" width="11" height="11" rx="2" fill="#333333"/>
  <rect x="418" y="48" width="11" height="11" rx="2" fill="#333333"/>
  <rect x="418" y="62" width="11" height="11" rx="2" fill="#333333"/>
  <rect x="418" y="76" width="11" height="11" rx="2" fill="#333333"/>
  <rect x="418" y="90" width="11" height="11" rx="2" fill="#333333"/>
  <rect x="418" y="104" width="11" height="11" rx="2" fill="#333333"/>
  <rect x="432" y="20" width="11" height="11" rx="2" fill="#333333"/>
  <rect x="432" y="34" width="11" height="11" rx="2" fill="#333333"/>
  <rect x="432" y="48" width="11" height="11" rx="2" fill="#333333"/>
  <rect x="432" y="62" width="11" height="11" rx="2" fill="#333333"/>
  <rect x="432" y="76" width="11" height="11" rx="2" fill="#333333"/>
  <rect x="432" y="90" width="11" height="11" rx="2" fill="#333333"/>
  <rect x="432" y="104" width="11" height="11" rx="2" fill="#333333"/>
  <rect x="446" y="20" width="11" height="11" rx="2" fill="#333333"/>
  <rect x="446" y="34" width="11" height="11" rx="2" fill="#333333"/>
  <rect x="446" y="48" width="11" height="11" rx="2" fill="#333333"/>
  <rect x="446" y="62" width="11" height="11" rx="2" fill="#333333"/>
  <rect x="446" y="76" width="11" height="11" rx="2" fill="#333333"/>
  <rect x="446" y="90" width="11" height="11" rx="2" fill="#333333"/>
  <rect x="446" y="104" width="11" height="11" rx="2" fill="#333333"/>
  <rect x="460" y="20" width="11" height="11" rx="2" fill="#333333"/>
  <rect x="460" y="34" width="11" height="11" rx="2" fill="#333333"/>
  <rect x="460" y="48" width="11" height="11" rx="2" fill="#333333"/>
  <rect x="460" y="62" width="11" height="11" rx="2" fill="#333333"/>
  <rect x="460" y="76" width="11" height="11" rx="2" fill="#333333"/>
  <rect x="460" y="90" width="11" height="11" rx="2" fill="#333333"/>
  <rect x="460" y="104" width="11" height="11" rx="2" fill="#333333"/>
  <rect x="474" y="20" width="11" height="11" rx="2" fill="#333333"/>
  <rect x="474" y="34" width="11" height="11" rx="2" fill="#333333"/>
  <rect x="474" y="48" width="11" height="11" rx="2" fill="#333333"/>
  <rect x="474" y="62" width="11" height="11" rx="2" fill="#333333"/>
  <rect x="474" y="76" width="11" height="11" rx="2" fill="#333333"/>
  <rect x="474" y="90" width="11" height="11" rx="2" fill="#333333"/>
  <rect x="474" y="104" width="11" height="11" rx="2" fill="#333333"/>
  <rect x="488" y="20" width="11" height="11" rx="2" fill="#333333"/>
  <rect x="488" y="34" width="11" height="11" rx="2" fill="#333333"/>
  <rect x="488" y="48" width="11" height="11" rx="2" fill="#333333"/>
  <rect x="488" y="62" width="11" height="11" rx="2" fill="#333333"/>
  <rect x="488" y="76" width="11" height="11" rx="2" fill="#333333"/>
  <rect x="488" y="90" width="11" height="11" rx="2" fill="#333333"/>
  <rect x="488" y="104" width="11" height="11" rx="2" fill="#333333"/>
  <rect x="502" y="20" width="11" height="11" rx="2" fill="#333333"/>
  <rect x="502" y="34" width="11" height="11" rx="2" fill="#333333"/>
  <rect x="502" y="48" width="11" height="11" rx="2" fill="#333333"/>
  <rect x="502" y="62" width="11" height="11" rx="2" fill="#333333"/>
  <rect x="502" y="76" width="11" height="11" rx="2" fill="#333333"/>
  <rect x="502" y="90" width="11" height="11" rx="2" fill="#333333"/>
  <rect x="502" y="104" width="11" height="11" rx="2" fill="#333333"/>
  <rect x="516" y="20" width="11" height="11" rx="2" fill="#333333"/>
  <rect x="516" y="34" width="11" height="11" rx="2" fill="#333333"/>
  <rect x="516" y="48" width="11" height="11" rx="2" fill="#333333"/>
  <rect x="516" y="62" width="11" height="11" rx="2" fill="#333333"/>
  <rect x="516" y="76" width="11" height="11" rx="2" fill="#333333"/>
  <rect x="516" y="90" width="11" height="11" rx="2" fill="#333333"/>
  <rect x="516" y="104" width="11" height="11" rx="2" fill="#333333"/>
  <rect x="530" y="20" width="11" height="11" rx="2" fill="#333333"/>
  <rect x="530" y="34" width="11" height="11" rx="2" fill="#333333"/>
  <rect x="530" y="48" width="11" height="11" rx="2" fill="#333333"/>
  <rect x="530" y="62" width="11" height="11" rx="2" fill="#333333"/>
  <rect x="530" y="76" width="11" height="11" rx="2" fill="#333333"/>
  <rect x="530" y="90" width="11" height="11" rx="2" fill="#333333"/>
  <rect x="530" y="104" width="11" height="11" rx="2" fill="#333333"/>
  <rect x="544" y="20" width="11" height="11" rx="2" fill="#333333"/>
  <rect x="544" y="34" width="11" height="11" rx="2" fill="#333333"/>
  <rect x="544" y="48" width="11" height="11" rx="2" fill="#333333"/>
  <rect x="544" y="62" width="11" height="11" rx="2" fill="#333333"/>
  <rect x="544" y="76" width="11" height="11" rx="2" fill="#333333"/>
  <rect x="544" y="90" width="11" height="11" rx="2" fill="#333333"/>
  <rect x="544" y="104" width="11" height="11" rx="2" fill="#333333"/>
  <rect x="558" y="20" width="11" height="11" rx="2" fill="#333333"/>
  <rect x="558" y="34" width="11" height="11" rx="2" fill="#333333"/>
  <rect x="558" y="48" width="11" height="11" rx="2" fill="#333333"/>
  <rect x="558" y="62" width="11" height="11" rx="2" fill="#333333"/>
  <rect x="558" y="76" width="11" height="11" rx="2" fill="#333333"/>
  <rect x="558" y="90" width="11" height="11" rx="2" fill="#333333"/>
  <rect x="558" y="104" width="11" height="11" rx="2" fill="#333333"/>
  <rect x="572" y="20" width="11" height="11" rx="2" fill="#333333"/>
  <rect x="572" y="34" width="11" height="11" rx="2" fill="#333333"/>
  <rect x="572" y="48" width="11" height="11" rx="2" fill="#333333"/>
  <rect x="572" y="62" width="11" height="11" rx="2" fill="#333333"/>
  <rect x="572" y="76" width="11" height="11" rx="2" fill="#333333"/>
  <rect x="572" y="90" width="11" height="11" rx="2" fill="#333333"/>
  <rect x="572" y="104" width="11" height="11" rx="2" fill="#333333"/>
  <rect x="586" y="20" width="11" height="11" rx="2" fill="#333333"/>
  <rect x="586" y="34" width="11" height="11" rx="2" fill="#333333"/>
  <rect x="586" y="48" width="11" height="11" rx="2" fill="#333333"/>
  <rect x="586" y="62" width="11" height="11" rx="2" fill="#333333"/>
  <rect x="586" y="76" width="11" height="11" rx="2" fill="#333333"/>
  <rect x="586" y="90" width="11" height="11" rx="2" fill="#333333"/>
  <rect x="586" y="104" width="11" height="11" rx="2" fill="#333333"/>
  <rect x="600" y="20" width="11" height="11" rx="2" fill="#333333"/>
  <rect x="600" y="34" width="11" height="11" rx="2" fill="#333333"/>
  <rect x="600" y="48" width="11" height="11" rx="2" fill="#333333"/>
  <rect x="600" y="62" width="11" height="11" rx="2" fill="#333333"/>
  <rect x="600" y="76" width="11" height="11" rx="2" fill="#333333"/>
  <rect x="600" y="90" width="11" height="11" rx="2" fill="#333333"/>
  <rect x="600" y="104" width="11" height="11" rx="2" fill="#333333"/>
  <rect x="614" y="20" width="11" height="11" rx="2" fill="#333333"/>
  <rect x="614" y="34" width="11" height="11" rx="2" fill="#333333"/>
  <rect x="614" y="48" width="11" height="11" rx="2" fill="#333333"/>
  <rect x="614" y="62" width="11" height="11" rx="2" fill="#333333"/>
  <rect x="614" y="76" width="11" height="11" rx="2" fill="#333333"/>
  <rect x="614" y="90" width="11" height="11" rx="2" fill="#333333"/>
  <rect x="614" y="104" width="11" height="11" rx="2" fill="#333333"/>
  <rect x="628" y="20" width="11" height="11" rx="2" fill="#333333"/>
  <rect x="628" y="34" width="11" height="11" rx="2" fill="#333333"/>
  <rect x="628" y="48" width="11" height="11" rx="2" fill="#333333"/>
  <rect x="628" y="62" width="11" height="11" rx="2" fill="#333333"/>
  <rect x="628" y="76" width="11" height="11" rx="2" fill="#333333"/>
  <rect x="628" y="90" width="11" height="11" rx="2" fill="#333333"/>
  <rect x="628" y="104" width="11" height="11" rx="2" fill="#333333"/>
  <rect x="642" y="20" width="11" height="11" rx="2" fill="#333333"/>
  <rect x="642" y="34" width="11" height="11" rx="2" fill="#333333"/>
  <rect x="642" y="48" width="11" height="11" rx="2" fill="#333333"/>
  <rect x="642" y="62" width="11" height="11" rx="2" fill="#333333"/>
  <rect x="642" y="76" width="11" height="11" rx="2" fill="#333333"/>
  <rect x="642" y="90" width="11" height="11" rx="2" fill="#333333"/>
  <rect x="642" y="104" width="11" height="11" rx="2" fill="#333333"/>
  <rect x="656" y="20" width="11" height="11" rx="2" fill="#333333"/>
  <rect x="656" y="34" width="11" height="11" rx="2" fill="#333333"/>
  <rect x="656" y="48" width="11" height="11" rx="2" fill="#333333"/>
  <rect x="656" y="62" width="11" height="11" rx="2" fill="#333333"/>
  <rect x="656" y="76" width="11" height="11" rx="2" fill="#333333"/>
  <rect x="656" y="90" width="11" height="11" rx="2" fill="#333333"/>
  <rect x="656" y="104" width="11" height="11" rx="2" fill="#333333"/>
  <rect x="670" y="20" width="11" height="11" rx="2" fill="#333333"/>
  <rect x="670" y="34" width="11" height="11" rx="2" fill="#333333"/>
  <rect x="670" y="48" width="11" height="11" rx="2" fill="#333333"/>
  <rect x="670" y="62" width="11" height="11" rx="2" fill="#333333"/>
  <rect x="670" y="76" width="11" height="11" rx="2" fill="#333333"/>
  <rect x="670" y="90" width="11" height="11" rx="2" fill="#333333"/>
  <rect x="670" y="104" width="11" height="11" rx="2" fill="#333333"/>
  <rect x="684" y="20" width="11" height="11" rx="2" fill="#333333"/>
  <rect x="684" y="34" width="11" height="11" rx="2" fill="#333333"/>
  <rect x="684" y="48" width="11" height="11" rx="2" fill="#333333"/>
  <rect x="684" y="62" width="11" height="11" rx="2" fill="#333333"/>
  <rect x="684" y="76" width="11" height="11" rx="2" fill="#333333"/>
  <rect x="684" y="90" width="11" height="11" rx="2" fill="#333333"/>
  <rect x="684" y="104" width="11" height="11" rx="2" fill="#333333"/>
  <rect x="698" y="20" width="11" height="11" rx="2" fill="#333333"/>
  <rect x="698" y="34" width="11" height="11" rx="2" fill="#333333"/>
  <rect x="698" y="48" width="11" height="11" rx="2" fill="#333333"/>
  <rect x="698" y="62" width="11" height="11" rx="2" fill="#333333"/>
  <rect x="698" y="76" width="11" height="11" rx="2" fill="#333333"/>
  <rect x="698" y="90" width="11" height="11" rx="2" fill="#333333"/>
  <rect x="698" y="104" width="11" height="11" rx="2" fill="#333333"/>
  <rect x="712" y="20" width="11" height="11" rx="2" fill="#333333"/>
  <rect x="712" y="34" width="11" height="11" rx="2" fill="#333333"/>
  <rect x="712" y="48" width="11" height="11" rx="2" fill="#333333"/>
  <rect x="712" y="62" width="11" height="11" rx="2" fill="#333333"/>
  <rect x="712" y="76" width="11" height="11" rx="2" fill="#333333"/>
  <rect x="712" y="90" width="11" height="11" rx="2" fill="#333333"/>
  <rect x="712" y="104" width="11" height="11" rx="2" fill="#333333"/>
  <rect x="726" y="20" width="11" height="11" rx="2" fill="#333333"/>
  <rect x="726" y="34" width="11" height="11" rx="2" fill="#333333"/>
  <rect x="726" y="48" width="11" height="11" rx="2" fill="#333333"/>
  <rect x="726" y="62" width="11" height="11" rx="2" fill="#333333"/>
  <rect x="726" y="76" width="11" height="11" rx="2" fill="#333333"/>
  <rect x="726" y="90" width="11" height="11" rx="2" fill="#333333"/>
  <rect x="726" y="104" width="11" height="11" rx="2" fill="#333333"/>
  <rect x="740" y="20" width="11" height="11" rx="2" fill="#333333"/>
  <rect x="740" y="34" width="11" height="11" rx="2" fill="#333333"/>
  <rect x="740" y="48" width="11" height="11" rx="2" fill="#333333"/>
  <rect x="740" y="62" width="11" height="11" rx="2" fill="#333333"/>
  <rect x="740" y="76" width="11" height="11" rx="2" fill="#333333"/>
  <rect x="740" y="90" width="11" height="11" rx="2" fill="#333333"/>
  <rect x="740" y="104" width="11" height="11" rx="2" fill="#333333"/>
  <rect x="754" y="20" width="11" height="11" rx="2" fill="#333333"/>
  <rect x="754" y="34" width="11" height="11" rx="2" fill="#333333"/>
  <rect x="754" y="48" width="11" height="11" rx="2" fill="#333333"/>
  <rect x="754" y="62" width="11" height="11" rx="2" fill="#333333"/>
  <rect x="754" y="76" width="11" height="11" rx="2" fill="#333333"/>
  <rect x="754" y="90" width="11" height="11" rx="2" fill="#333333"/>

  <!-- Total contributions label -->
  <text x="420" y="150" text-anchor="middle" font-family="'Courier New', Courier, monospace" font-size="11" fill="#4a9e7a">232 contributions so far in 2026</text>

  </g>

</svg>
